# Blender 4.2.8 LTS
# www.blender.org
mtllib board_left_back.mtl
o 平面.002
v 1.260000 -0.900000 0.500000
v 1.260000 0.900000 0.500000
v 3.780000 -0.900000 0.500000
v 3.780000 0.900000 0.500000
v 6.300000 -0.900000 0.500000
v 6.300000 0.900000 0.500000
v 8.820000 -0.900000 0.500000
v 8.820000 0.900000 0.500000
v -0.900000 1.260000 0.500000
v 0.900000 1.260000 0.500000
v 1.620000 1.260000 0.500000
v 3.420000 1.260000 0.500000
v 4.140000 1.260000 0.500000
v 5.940000 1.260000 0.500000
v 6.660000 1.260000 0.500000
v 8.460000 1.260000 0.500000
v 9.180000 1.260000 0.500000
v 1.260000 1.620000 0.500000
v 1.260000 3.420000 0.500000
v 3.780000 1.620000 0.500000
v 3.780000 3.420000 0.500000
v 6.300000 1.620000 0.500000
v 6.300000 3.420000 0.500000
v 8.820000 1.620000 0.500000
v 8.820000 3.420000 0.500000
v -0.900000 3.780000 0.500000
v 0.900000 3.780000 0.500000
v 1.620000 3.780000 0.500000
v 3.420000 3.780000 0.500000
v 4.140000 3.780000 0.500000
v 5.940000 3.780000 0.500000
v 6.660000 3.780000 0.500000
v 8.460000 3.780000 0.500000
v 9.180000 3.780000 0.500000
v 1.260000 4.140000 0.500000
v 1.260000 5.940000 0.500000
v 3.780000 4.140000 0.500000
v 3.780000 5.940000 0.500000
v 6.300000 4.140000 0.500000
v 6.300000 5.940000 0.500000
v 8.820000 4.140000 0.500000
v 8.820000 5.940000 0.500000
v -0.900000 6.300000 0.500000
v 0.900000 6.300000 0.500000
v 1.620000 6.300000 0.500000
v 3.420000 6.300000 0.500000
v 4.140000 6.300000 0.500000
v 5.940000 6.300000 0.500000
v 6.660000 6.300000 0.500000
v 8.460000 6.300000 0.500000
v 9.180000 6.300000 0.500000
v 1.260000 6.660000 0.500000
v 1.260000 8.460000 0.500000
v 3.780000 6.660000 0.500000
v 3.780000 8.460000 0.500000
v 6.300000 6.660000 0.500000
v 6.300000 8.460000 0.500000
v 8.820000 6.660000 0.500000
v 8.820000 8.460000 0.500000
v -0.900000 8.820000 0.500000
v 0.900000 8.820000 0.500000
v 1.620000 8.820000 0.500000
v 3.420000 8.820000 0.500000
v 4.140000 8.820000 0.500000
v 5.940000 8.820000 0.500000
v 6.660000 8.820000 0.500000
v 8.460000 8.820000 0.500000
v 9.180000 8.820000 0.500000
v 1.260000 9.180000 0.500000
v 1.260000 10.980000 0.500000
v 3.780000 9.180000 0.500000
v 3.780000 10.980000 0.500000
v 6.300000 9.180000 0.500000
v 6.300000 10.980000 0.500000
v 8.820000 9.180000 0.500000
v 8.820000 10.980000 0.500000
v -0.900000 11.340000 0.500000
v 0.900000 11.340000 0.500000
v 1.620000 11.340000 0.500000
v 3.420000 11.340000 0.500000
v 4.140000 11.340000 0.500000
v 5.940000 11.340000 0.500000
v 6.660000 11.340000 0.500000
v 8.460000 11.340000 0.500000
v 9.180000 11.340000 0.500000
v 1.260000 11.700000 0.500000
v 1.260000 13.500000 0.500000
v 3.780000 11.700000 0.500000
v 3.780000 13.500000 0.500000
v 6.300000 11.700000 0.500000
v 6.300000 13.500000 0.500000
v 8.820000 11.700000 0.500000
v 8.820000 13.500000 0.500000
v -0.900000 13.860000 0.500000
v 0.900000 13.860000 0.500000
v 1.620000 13.860000 0.500000
v 3.420000 13.860000 0.500000
v 4.140000 13.860000 0.500000
v 5.940000 13.860000 0.500000
v 6.660000 13.860000 0.500000
v 8.460000 13.860000 0.500000
v 9.180000 13.860000 0.500000
v 1.260000 14.219999 0.500000
v 1.260000 16.020000 0.500000
v 3.780000 14.219999 0.500000
v 3.780000 16.020000 0.500000
v 6.300000 14.219999 0.500000
v 6.300000 16.020000 0.500000
v 8.820000 14.219999 0.500000
v 8.820000 16.020000 0.500000
v -0.900000 16.380001 0.500000
v 0.900000 16.380001 0.500000
v 1.620000 16.380001 0.500000
v 3.420000 16.380001 0.500000
v 4.140000 16.380001 0.500000
v 5.940000 16.380001 0.500000
v 6.660000 16.380001 0.500000
v 8.460000 16.380001 0.500000
v 9.180000 16.380001 0.500000
v 1.260000 16.740000 0.500000
v 1.260000 18.540001 0.500000
v 3.780000 16.740000 0.500000
v 3.780000 18.540001 0.500000
v 6.300000 16.740000 0.500000
v 6.300000 18.540001 0.500000
v 8.820000 16.740000 0.500000
v 8.820000 18.540001 0.500000
l 1 2
l 3 4
l 5 6
l 7 8
l 10 9
l 12 11
l 13 14
l 15 16
l 18 19
l 20 21
l 22 23
l 24 25
l 27 26
l 29 28
l 30 31
l 32 33
l 35 36
l 37 38
l 39 40
l 41 42
l 44 43
l 46 45
l 47 48
l 49 50
l 52 53
l 54 55
l 56 57
l 58 59
l 61 60
l 63 62
l 64 65
l 66 67
l 69 70
l 71 72
l 73 74
l 75 76
l 78 77
l 80 79
l 81 82
l 83 84
l 86 87
l 88 89
l 90 91
l 92 93
l 95 94
l 97 96
l 98 99
l 100 101
l 103 104
l 105 106
l 107 108
l 109 110
l 112 111
l 114 113
l 115 116
l 117 118
l 120 121
l 122 123
l 124 125
l 126 127
o 平面.003
v 9.555780 19.482357 0.000002
v -1.870749 19.482357 0.000002
v 9.555780 -1.667060 0.000001
v -1.870749 -1.667060 0.000001
vn -0.0000 -0.0000 -1.0000
vt 0.000000 0.000000
vt 1.000000 0.000000
vt 1.000000 1.000000
vt 0.000000 1.000000
s 0
f 128/1/1 130/4/1 131/3/1 129/2/1
