# Blender 4.2.8 LTS
# www.blender.org
mtllib board_lf.mtl
o 平面
v -3.978913 21.618923 -0.051057
v -3.978913 19.619125 -0.051057
v -1.479114 21.618923 -0.051057
v -3.978913 18.819206 -0.051057
v -3.978913 16.819405 -0.051057
v -4.378874 8.420244 -0.051058
v -4.378874 10.420044 -0.051058
v -3.978913 22.018887 -0.051057
v -1.479114 22.018883 -0.051057
v -3.978913 16.019485 -0.051057
v -3.978914 14.019684 -0.051058
v -4.378874 11.219965 -0.051058
v -4.378874 13.219765 -0.051058
v -3.978913 13.219765 -0.051058
v -3.978913 11.219965 -0.051058
v -4.378873 14.019684 -0.051058
v -3.978913 10.420044 -0.051058
v -3.978913 8.420244 -0.051058
v -4.378874 16.019484 -0.051057
v -3.978913 7.620324 -0.051059
v -3.978912 5.620524 -0.051059
v -3.978912 4.820605 -0.051059
v -4.378874 16.819405 -0.051057
v -4.378874 18.819204 -0.051057
v -3.978912 2.820803 -0.051059
v -4.378874 19.619125 -0.051057
v -4.378874 21.618923 -0.051057
v -3.978912 2.020885 -0.051059
v -3.978914 0.021083 -0.051060
v -1.479115 0.021082 -0.051060
v -3.978914 -0.378875 -0.051060
v -1.479115 -0.378876 -0.051060
v -4.378874 5.620524 -0.051059
v -4.378875 7.620325 -0.051059
v -4.378874 4.820605 -0.051059
v -4.378874 2.820803 -0.051059
v -4.378874 2.020885 -0.051059
v -4.378876 0.021083 -0.051060
v -0.679194 21.618923 -0.051057
v 1.820606 21.618923 -0.051058
v -0.679194 22.018883 -0.051057
v 1.820606 22.018883 -0.051057
v -0.679195 0.021082 -0.051060
v 1.820606 0.021082 -0.051060
v -0.679195 -0.378876 -0.051060
v 1.820604 -0.378876 -0.051060
v 2.620526 21.618923 -0.051058
v 5.120326 21.618923 -0.051058
v 2.620526 22.018883 -0.051058
v 5.120326 22.018883 -0.051058
v 2.620525 0.021082 -0.051060
v 5.120325 0.021082 -0.051061
v 2.620525 -0.378876 -0.051061
v 5.120325 -0.378876 -0.051061
v 5.920246 21.618923 -0.051058
v 8.420046 21.618923 -0.051058
v 5.920245 22.018883 -0.051058
v 8.420046 22.018883 -0.051058
v 5.920244 0.021082 -0.051061
v 8.420045 0.021082 -0.051061
v 5.920244 -0.378876 -0.051061
v 8.420045 -0.378876 -0.051061
v 9.219966 21.618923 -0.051059
v 9.219965 0.021082 -0.051061
v 9.219966 22.018883 -0.051058
v 9.219965 -0.378876 -0.051061
v -1.479114 19.619122 -0.051057
v -1.479114 18.819202 -0.051057
v -1.479114 16.819405 -0.051058
v -1.479114 16.019484 -0.051058
v -1.479114 14.019684 -0.051058
v -1.479114 13.219765 -0.051058
v -1.479114 11.219965 -0.051058
v -1.479114 10.420044 -0.051059
v -1.479114 8.420244 -0.051059
v -1.479114 7.620325 -0.051059
v -1.479114 5.620524 -0.051059
v -1.479115 4.820605 -0.051059
v -1.479115 2.820803 -0.051060
v -1.479115 2.020884 -0.051060
v -0.679194 19.619122 -0.051057
v -0.679194 18.819202 -0.051058
v -0.679194 16.819405 -0.051058
v -0.679194 16.019484 -0.051058
v -0.679194 14.019684 -0.051058
v -0.679194 13.219765 -0.051058
v -0.679194 11.219965 -0.051059
v -0.679194 8.420244 -0.051059
v -0.679194 4.820605 -0.051059
v 1.820606 19.619123 -0.051058
v 1.820606 18.819204 -0.051058
v 1.820606 16.819405 -0.051058
v 1.820606 16.019484 -0.051058
v 1.820606 14.019684 -0.051059
v 1.820606 13.219765 -0.051059
v 1.820606 11.219964 -0.051059
v 1.820606 10.420043 -0.051059
v -0.679194 10.420044 -0.051059
v 1.820606 8.420244 -0.051059
v -0.679194 7.620325 -0.051059
v 1.820605 7.620324 -0.051059
v -0.679194 5.620524 -0.051059
v 1.820605 5.620524 -0.051060
v 1.820605 4.820605 -0.051060
v -0.679195 2.820803 -0.051060
v 1.820605 2.820803 -0.051060
v -0.679195 2.020884 -0.051060
v 1.820605 2.020884 -0.051060
v 2.620526 19.619123 -0.051058
v 2.620525 14.019684 -0.051059
v 2.620525 13.219764 -0.051059
v 2.620525 11.219964 -0.051059
v 2.620525 10.420043 -0.051059
v 2.620525 8.420244 -0.051059
v 2.620525 7.620324 -0.051059
v 2.620525 4.820605 -0.051060
v 2.620525 2.820803 -0.051060
v 5.120326 19.619123 -0.051058
v 2.620526 18.819204 -0.051058
v 5.120326 18.819202 -0.051058
v 2.620525 16.819405 -0.051058
v 5.120326 16.819403 -0.051059
v 2.620525 16.019484 -0.051058
v 5.120326 16.019484 -0.051059
v 5.120326 14.019684 -0.051059
v 5.120326 13.219764 -0.051059
v 5.120326 11.219964 -0.051059
v 5.120326 10.420043 -0.051059
v 5.120325 8.420244 -0.051060
v 5.120325 7.620324 -0.051060
v 2.620525 5.620524 -0.051060
v 5.120325 5.620523 -0.051060
v 5.120325 4.820604 -0.051060
v 5.120325 2.820803 -0.051060
v 2.620525 2.020884 -0.051060
v 5.120325 2.020884 -0.051061
v 5.920245 19.619123 -0.051058
v 5.920245 18.819202 -0.051058
v 5.920245 8.420244 -0.051060
v 5.920244 2.020884 -0.051061
v 8.420046 19.619123 -0.051059
v 8.420046 18.819202 -0.051059
v 5.920245 16.819403 -0.051059
v 8.420046 16.819403 -0.051059
v 5.920245 16.019484 -0.051059
v 8.420046 16.019484 -0.051059
v 5.920245 14.019684 -0.051059
v 8.420046 14.019684 -0.051059
v 5.920245 13.219764 -0.051059
v 8.420046 13.219764 -0.051060
v 5.920245 11.219964 -0.051059
v 8.420046 11.219964 -0.051060
v 8.420046 10.420043 -0.051060
v 5.920245 10.420043 -0.051060
v 8.420046 8.420244 -0.051060
v 5.920245 7.620324 -0.051060
v 8.420046 7.620324 -0.051060
v 5.920245 5.620523 -0.051060
v 8.420046 5.620523 -0.051061
v 5.920245 4.820604 -0.051060
v 8.420046 4.820604 -0.051061
v 5.920244 2.820803 -0.051061
v 8.420046 2.820803 -0.051061
v 8.420046 2.020884 -0.051061
v 9.219966 16.819403 -0.051059
v 9.219966 16.019484 -0.051059
v 9.219966 11.219964 -0.051060
v 9.219966 10.420043 -0.051060
v 9.219966 5.620523 -0.051061
v 9.219966 4.820604 -0.051061
v 9.219966 2.820803 -0.051061
v 9.219966 2.020884 -0.051061
v 9.219966 19.619123 -0.051059
v 9.219966 18.819202 -0.051059
v 9.219966 14.019684 -0.051060
v 9.219966 13.219764 -0.051060
v 9.219966 8.420244 -0.051060
v 9.219966 7.620324 -0.051060
v -3.978913 22.418886 -0.051057
v -1.479114 22.418882 -0.051057
v -0.679194 22.418882 -0.051057
v 1.820606 22.418882 -0.051057
v 2.620526 22.418882 -0.051058
v 5.120326 22.418882 -0.051058
v 5.920245 22.418882 -0.051058
v 8.420046 22.418882 -0.051058
v 9.219966 22.418882 -0.051058
v -4.778874 8.420244 -0.051058
v -4.778874 10.420044 -0.051058
v -4.778874 11.219965 -0.051058
v -4.778874 13.219765 -0.051058
v -4.778873 14.019684 -0.051058
v -4.778874 16.019484 -0.051057
v -4.778874 16.819405 -0.051057
v -4.778874 18.819204 -0.051057
v -4.778874 19.619125 -0.051057
v -4.778874 21.618923 -0.051057
v -4.778874 5.620524 -0.051059
v -4.778875 7.620325 -0.051059
v -4.778874 4.820605 -0.051059
v -4.778874 2.820803 -0.051059
v -4.778874 2.020885 -0.051059
v -4.778876 0.021083 -0.051060
v -3.978914 -0.778875 -0.051060
v -1.479115 -0.778876 -0.051060
v -0.679195 -0.778876 -0.051060
v 1.820604 -0.778876 -0.051060
v 2.620525 -0.778876 -0.051061
v 5.120325 -0.778876 -0.051061
v 5.920244 -0.778876 -0.051061
v 8.420045 -0.778876 -0.051061
v 9.219965 -0.778876 -0.051061
vn -0.0000 -0.0000 -1.0000
vt 0.000000 0.000000
s 0
f 67/1/1 81/1/1 82/1/1 68/1/1
f 73/1/1 87/1/1 98/1/1 74/1/1
f 75/1/1 88/1/1 100/1/1 76/1/1
f 77/1/1 102/1/1 89/1/1 78/1/1
f 69/1/1 83/1/1 84/1/1 70/1/1
f 71/1/1 85/1/1 86/1/1 72/1/1
f 79/1/1 105/1/1 107/1/1 80/1/1
f 90/1/1 109/1/1 119/1/1 91/1/1
f 96/1/1 112/1/1 113/1/1 97/1/1
f 99/1/1 114/1/1 115/1/1 101/1/1
f 103/1/1 131/1/1 116/1/1 104/1/1
f 92/1/1 121/1/1 123/1/1 93/1/1
f 94/1/1 110/1/1 111/1/1 95/1/1
f 106/1/1 117/1/1 135/1/1 108/1/1
f 118/1/1 137/1/1 138/1/1 120/1/1
f 127/1/1 151/1/1 154/1/1 128/1/1
f 129/1/1 139/1/1 156/1/1 130/1/1
f 132/1/1 158/1/1 160/1/1 133/1/1
f 122/1/1 143/1/1 145/1/1 124/1/1
f 125/1/1 147/1/1 149/1/1 126/1/1
f 134/1/1 162/1/1 140/1/1 136/1/1
f 141/1/1 173/1/1 174/1/1 142/1/1
f 152/1/1 167/1/1 168/1/1 153/1/1
f 155/1/1 177/1/1 178/1/1 157/1/1
f 159/1/1 169/1/1 170/1/1 161/1/1
f 144/1/1 165/1/1 166/1/1 146/1/1
f 148/1/1 175/1/1 176/1/1 150/1/1
f 163/1/1 171/1/1 172/1/1 164/1/1
f 2/1/1 26/1/1 196/1/1 197/1/1 27/1/1 1/1/1 8/1/1 179/1/1 180/1/1 9/1/1 3/1/1 39/1/1 41/1/1 181/1/1 182/1/1 42/1/1 40/1/1 47/1/1 49/1/1 183/1/1 184/1/1 50/1/1 48/1/1 55/1/1 57/1/1 185/1/1 186/1/1 58/1/1 56/1/1 63/1/1 65/1/1 187/1/1 212/1/1 66/1/1 64/1/1 60/1/1 62/1/1 211/1/1 210/1/1 61/1/1 59/1/1 52/1/1 54/1/1 209/1/1 208/1/1 53/1/1 51/1/1 44/1/1 46/1/1 207/1/1 206/1/1 45/1/1 43/1/1 30/1/1 32/1/1 205/1/1 204/1/1 31/1/1 29/1/1 38/1/1 203/1/1 202/1/1 37/1/1 28/1/1 25/1/1 36/1/1 201/1/1 200/1/1 35/1/1 22/1/1 21/1/1 33/1/1 198/1/1 199/1/1 34/1/1 20/1/1 18/1/1 6/1/1 188/1/1 189/1/1 7/1/1 17/1/1 15/1/1 12/1/1 190/1/1 191/1/1 13/1/1 14/1/1 11/1/1 16/1/1 192/1/1 193/1/1 19/1/1 10/1/1 5/1/1 23/1/1 194/1/1 195/1/1 24/1/1 4/1/1
o 平面.002
v -3.978913 19.219166 0.504443
v -1.479114 19.219162 0.504443
v -3.978913 16.419445 0.504442
v -1.479114 16.419443 0.504442
v -3.978913 13.619724 0.504442
v -1.479114 13.619724 0.504442
v -3.978913 10.820005 0.504442
v -1.479114 10.820004 0.504441
v -3.978913 8.020285 0.504441
v -1.479114 8.020285 0.504441
v -3.978912 5.220564 0.504441
v -1.479114 5.220564 0.504441
v -3.978912 2.420844 0.504441
v -1.479115 2.420843 0.504440
v -1.079153 21.618923 0.504443
v -1.079154 19.619122 0.504443
v -1.079154 18.819202 0.504442
v -1.079154 16.819405 0.504442
v -1.079154 16.019484 0.504442
v -1.079154 14.019684 0.504442
v -1.079154 13.219765 0.504442
v -1.079154 11.219964 0.504441
v -1.079154 10.420043 0.504441
v -1.079154 8.420244 0.504441
v -1.079154 7.620325 0.504441
v -1.079154 5.620524 0.504441
v -1.079154 4.820605 0.504441
v -1.079155 2.820803 0.504440
v -1.079155 2.020884 0.504440
v -1.079155 0.021082 0.504440
v -0.679194 19.219162 0.504442
v 1.820606 19.219162 0.504442
v -0.679194 16.419443 0.504442
v 1.820606 16.419443 0.504442
v -0.679194 13.619724 0.504442
v 1.820606 13.619724 0.504441
v -0.679194 10.820004 0.504441
v 1.820606 10.820004 0.504441
v -0.679194 8.020285 0.504441
v 1.820605 8.020284 0.504441
v -0.679194 5.220564 0.504441
v 1.820605 5.220564 0.504440
v -0.679195 2.420843 0.504440
v 1.820605 2.420843 0.504440
v 2.220566 21.618923 0.504442
v 2.220566 19.619123 0.504442
v 2.220566 18.819204 0.504442
v 2.220566 16.819405 0.504442
v 2.220565 16.019484 0.504442
v 2.220565 14.019684 0.504441
v 2.220565 13.219765 0.504441
v 2.220565 11.219964 0.504441
v 2.220565 10.420043 0.504441
v 2.220566 8.420244 0.504441
v 2.220565 7.620324 0.504440
v 2.220566 5.620524 0.504440
v 2.220565 4.820605 0.504440
v 2.220565 2.820803 0.504440
v 2.220565 2.020884 0.504440
v 2.220566 0.021082 0.504439
v 2.620526 19.219162 0.504442
v 5.120326 19.219162 0.504442
v 2.620526 16.419443 0.504442
v 5.120326 16.419443 0.504441
v 2.620525 13.619723 0.504441
v 5.120326 13.619723 0.504441
v 2.620525 10.820004 0.504441
v 5.120326 10.820004 0.504440
v 2.620525 8.020284 0.504440
v 5.120326 8.020284 0.504440
v 2.620525 5.220564 0.504440
v 5.120325 5.220564 0.504440
v 2.620525 2.420843 0.504440
v 5.120325 2.420843 0.504439
v 5.520286 21.618923 0.504442
v 5.520286 19.619123 0.504442
v 5.520286 18.819202 0.504441
v 5.520286 16.819403 0.504441
v 5.520286 16.019484 0.504441
v 5.520286 14.019684 0.504441
v 5.520286 13.219764 0.504441
v 5.520286 11.219964 0.504440
v 5.520286 10.420043 0.504440
v 5.520286 8.420244 0.504440
v 5.520286 7.620324 0.504440
v 5.520286 5.620523 0.504440
v 5.520286 4.820604 0.504440
v 5.520286 2.820803 0.504439
v 5.520285 2.020884 0.504439
v 5.520285 0.021082 0.504439
v 5.920246 19.219162 0.504441
v 8.420046 19.219162 0.504441
v 5.920245 16.419443 0.504441
v 8.420046 16.419443 0.504441
v 5.920245 13.619723 0.504441
v 8.420046 13.619723 0.504440
v 5.920245 10.820004 0.504440
v 8.420046 10.820004 0.504440
v 5.920245 8.020284 0.504440
v 8.420046 8.020284 0.504440
v 5.920245 5.220564 0.504440
v 8.420046 5.220564 0.504439
v 5.920244 2.420843 0.504439
v 8.420046 2.420843 0.504439
v 8.820006 21.618923 0.504441
v 8.820005 19.619123 0.504441
v 8.820005 18.819202 0.504441
v 8.820005 16.819403 0.504441
v 8.820005 16.019484 0.504441
v 8.820005 14.019684 0.504440
v 8.820005 13.219764 0.504440
v 8.820005 11.219964 0.504440
v 8.820005 10.420043 0.504440
v 8.820005 8.420244 0.504440
v 8.820005 7.620324 0.504440
v 8.820005 5.620523 0.504439
v 8.820005 4.820604 0.504439
v 8.820005 2.820803 0.504439
v 8.820005 2.020884 0.504439
v 8.820005 0.021082 0.504439
v 9.219966 19.219162 0.504441
v 9.219966 16.419443 0.504441
v 9.219966 13.619723 0.504440
v 9.219966 10.820004 0.504440
v 9.219966 8.020284 0.504440
v 9.219966 5.220564 0.504439
v 9.219966 2.420843 0.504439
v -4.378874 8.420244 0.448942
v -4.378874 10.420044 0.448942
v -3.978913 22.018887 0.448943
v -1.479114 22.018883 0.448943
v -4.378874 11.219965 0.448942
v -4.378874 13.219765 0.448942
v -4.378873 14.019684 0.448942
v -4.378874 16.019484 0.448943
v -4.378874 16.819405 0.448943
v -4.378874 18.819204 0.448943
v -4.378874 19.619125 0.448943
v -4.378874 21.618923 0.448943
v -3.978914 -0.378875 0.448940
v -1.479115 -0.378876 0.448940
v -4.378874 5.620524 0.448941
v -4.378875 7.620325 0.448941
v -4.378874 4.820605 0.448941
v -4.378874 2.820803 0.448941
v -4.378874 2.020885 0.448941
v -4.378876 0.021083 0.448940
v -0.679194 22.018883 0.448943
v 1.820606 22.018883 0.448943
v -0.679195 -0.378876 0.448940
v 1.820604 -0.378876 0.448940
v 2.620526 22.018883 0.448942
v 5.120326 22.018883 0.448942
v 2.620525 -0.378876 0.448939
v 5.120325 -0.378876 0.448939
v 5.920245 22.018883 0.448942
v 8.420046 22.018883 0.448942
v 5.920244 -0.378876 0.448939
v 8.420045 -0.378876 0.448939
v 9.219966 22.018883 0.448942
v 9.219965 -0.378876 0.448939
l 213 214
l 215 216
l 217 218
l 219 220
l 221 222
l 223 224
l 225 226
l 228 227
l 230 229
l 231 232
l 233 234
l 237 238
l 241 242
l 235 236
l 239 240
l 243 244
l 245 246
l 247 248
l 249 250
l 251 252
l 253 254
l 255 256
l 258 257
l 260 259
l 261 262
l 263 264
l 267 268
l 271 272
l 265 266
l 269 270
l 273 274
l 275 276
l 277 278
l 279 280
l 281 282
l 283 284
l 285 286
l 288 287
l 290 289
l 291 292
l 293 294
l 297 298
l 301 302
l 295 296
l 299 300
l 303 304
l 305 306
l 307 308
l 309 310
l 311 312
l 313 314
l 315 316
l 318 317
l 320 319
l 321 322
l 323 324
l 327 328
l 331 332
l 325 326
l 329 330
l 343 342
l 356 357
l 358 359
l 355 354
l 341 340
l 345 344
l 347 346
l 349 348
l 351 350
l 352 353
l 361 360
l 362 363
l 365 364
l 366 367
l 369 368
l 370 371
o 平面.003
v -5.178179 -1.091138 0.000001
v 9.956875 -1.091138 0.000001
v -5.178179 23.161165 0.000001
v 9.956875 23.161165 0.000001
vn -0.0000 -0.0000 1.0000
vt 0.000000 0.000000
vt 1.000000 0.000000
vt 1.000000 1.000000
vt 0.000000 1.000000
s 0
f 374/2/2 375/3/2 377/4/2 376/5/2
