# Blender 4.2.8 LTS
# www.blender.org
mtllib board_lb.mtl
o 平面.001
v -3.978912 21.618923 1.059943
v -3.978913 19.619125 1.059943
v -1.479113 21.618923 1.059943
v -1.479114 19.619122 1.059942
v -3.978913 18.819206 1.059943
v -1.479114 18.819202 1.059942
v -3.978913 16.819405 1.059942
v -1.479114 16.819405 1.059942
v -3.978913 16.019485 1.059942
v -1.479114 16.019484 1.059942
v -3.978914 14.019684 1.059942
v -1.479114 14.019684 1.059942
v -3.978913 13.219765 1.059942
v -1.479114 13.219765 1.059942
v -3.978913 11.219965 1.059942
v -1.479114 11.219964 1.059941
v -1.479114 10.420043 1.059941
v -3.978913 10.420044 1.059942
v -3.978913 8.420244 1.059941
v -1.479114 8.420244 1.059941
v -3.978913 7.620324 1.059941
v -1.479114 7.620325 1.059941
v -3.978912 5.620524 1.059941
v -1.479114 5.620524 1.059941
v -3.978912 4.820605 1.059941
v -1.479115 4.820605 1.059940
v -3.978912 2.820803 1.059941
v -1.479115 2.820803 1.059940
v -3.978912 2.020885 1.059940
v -1.479115 2.020884 1.059940
v -3.978912 0.021083 1.059940
v -1.479115 0.021082 1.059940
v -0.679194 19.619122 1.059942
v -0.679194 18.819202 1.059942
v -0.679194 16.819405 1.059942
v -0.679194 16.019484 1.059942
v -0.679194 14.019684 1.059942
v -0.679194 13.219765 1.059942
v -0.679194 11.219964 1.059941
v -0.679194 8.420244 1.059941
v -0.679194 4.820605 1.059940
v -0.679193 21.618923 1.059943
v 1.820606 21.618923 1.059942
v 1.820606 19.619123 1.059942
v 1.820606 18.819204 1.059942
v 1.820606 16.819405 1.059942
v 1.820606 16.019484 1.059942
v 1.820606 14.019684 1.059941
v 1.820606 13.219765 1.059941
v 1.820606 11.219964 1.059941
v 1.820606 10.420043 1.059941
v -0.679194 10.420043 1.059941
v 1.820606 8.420244 1.059941
v -0.679194 7.620325 1.059941
v 1.820605 7.620324 1.059940
v -0.679194 5.620524 1.059940
v 1.820606 5.620524 1.059940
v 1.820606 4.820605 1.059940
v -0.679195 2.820803 1.059940
v 1.820605 2.820803 1.059940
v -0.679195 2.020884 1.059940
v 1.820605 2.020884 1.059940
v -0.679195 0.021082 1.059940
v 1.820606 0.021082 1.059939
v 2.620526 21.618923 1.059942
v 2.620526 19.619123 1.059942
v 2.620525 14.019684 1.059941
v 2.620525 13.219764 1.059941
v 2.620525 11.219964 1.059941
v 2.620525 10.420043 1.059941
v 2.620525 8.420244 1.059940
v 2.620525 7.620324 1.059940
v 2.620525 4.820605 1.059940
v 2.620525 2.820803 1.059940
v 5.120326 21.618923 1.059942
v 5.120326 19.619123 1.059942
v 2.620526 18.819204 1.059942
v 5.120326 18.819202 1.059942
v 2.620526 16.819405 1.059942
v 5.120326 16.819403 1.059941
v 2.620526 16.019484 1.059942
v 5.120326 16.019484 1.059941
v 5.120326 14.019684 1.059941
v 5.120326 13.219764 1.059941
v 5.120326 11.219964 1.059940
v 5.120326 10.420043 1.059940
v 5.120326 8.420244 1.059940
v 5.120326 7.620324 1.059940
v 2.620525 5.620524 1.059940
v 5.120325 5.620523 1.059940
v 5.120325 4.820604 1.059940
v 5.120325 2.820803 1.059939
v 2.620525 2.020884 1.059940
v 5.120325 2.020884 1.059939
v 2.620525 0.021082 1.059939
v 5.120325 0.021082 1.059939
v 5.920246 21.618923 1.059942
v 5.920246 19.619123 1.059942
v 5.920246 18.819202 1.059941
v 5.920245 8.420244 1.059940
v 5.920245 2.020884 1.059939
v 8.420047 21.618923 1.059941
v 8.420046 19.619123 1.059941
v 8.420046 18.819202 1.059941
v 5.920245 16.819403 1.059941
v 8.420046 16.819403 1.059941
v 5.920245 16.019484 1.059941
v 8.420046 16.019484 1.059941
v 5.920245 14.019684 1.059941
v 8.420046 14.019684 1.059940
v 5.920245 13.219764 1.059941
v 8.420046 13.219764 1.059940
v 5.920245 11.219964 1.059940
v 8.420046 11.219964 1.059940
v 8.420046 10.420043 1.059940
v 5.920245 10.420043 1.059940
v 8.420046 8.420244 1.059940
v 5.920245 7.620324 1.059940
v 8.420046 7.620324 1.059940
v 5.920245 5.620523 1.059940
v 8.420046 5.620523 1.059939
v 5.920245 4.820604 1.059940
v 8.420046 4.820604 1.059939
v 5.920245 2.820803 1.059939
v 8.420046 2.820803 1.059939
v 8.420046 2.020884 1.059939
v 5.920244 0.021082 1.059939
v 8.420046 0.021082 1.059939
v 9.219967 21.618923 1.059941
v 9.219966 16.819403 1.059941
v 9.219966 16.019484 1.059941
v 9.219966 11.219964 1.059940
v 9.219966 10.420043 1.059940
v 9.219966 5.620523 1.059939
v 9.219966 4.820604 1.059939
v 9.219966 2.820803 1.059939
v 9.219966 2.020884 1.059939
v 9.219966 0.021082 1.059938
v 9.219967 19.619123 1.059941
v 9.219966 18.819202 1.059941
v 9.219966 14.019684 1.059940
v 9.219966 13.219764 1.059940
v 9.219966 8.420244 1.059940
v 9.219966 7.620324 1.059939
l 3 1
l 1 2
l 2 4
l 4 3
l 5 6
l 7 8
l 5 7
l 8 6
l 9 10
l 11 12
l 11 9
l 10 12
l 13 14
l 15 16
l 15 13
l 14 16
l 19 18
l 19 20
l 21 22
l 23 24
l 23 21
l 22 24
l 26 25
l 27 28
l 29 30
l 31 32
l 31 29
l 30 32
l 17 18
l 17 20
l 27 25
l 26 28
l 35 34
l 36 37
l 38 39
l 43 42
l 44 43
l 46 45
l 47 48
l 49 50
l 54 55
l 56 57
l 56 54
l 55 57
l 59 60
l 61 62
l 63 64
l 63 61
l 62 64
l 51 52
l 51 53
l 58 60
l 65 66
l 68 69
l 70 71
l 73 74
l 76 75
l 77 78
l 79 80
l 77 79
l 80 78
l 81 82
l 82 83
l 84 85
l 89 90
l 88 90
l 93 94
l 95 96
l 95 93
l 94 96
l 86 87
l 91 92
l 97 98
l 103 102
l 105 106
l 106 104
l 107 108
l 109 110
l 109 107
l 108 110
l 111 112
l 113 114
l 113 111
l 112 114
l 118 119
l 120 121
l 120 118
l 119 121
l 123 122
l 124 125
l 127 128
l 126 128
l 115 116
l 115 117
l 124 122
l 123 125
l 137 138
l 135 136
l 33 42
l 52 40
l 41 59
l 33 44
l 34 45
l 35 46
l 36 47
l 37 48
l 38 49
l 39 50
l 40 53
l 58 41
l 81 67
l 72 89
l 75 65
l 66 76
l 67 83
l 68 84
l 69 85
l 71 87
l 72 88
l 91 73
l 74 92
l 86 70
l 99 105
l 101 127
l 116 100
l 102 97
l 98 103
l 99 104
l 100 117
l 101 126
l 129 139
l 140 130
l 131 141
l 142 132
l 144 134
l 133 143
o 平面.003
v -5.178179 -1.091138 0.000001
v 9.956875 -1.091138 0.000001
v -5.178179 23.161165 0.000001
v 9.956875 23.161165 0.000001
vn -0.0000 -0.0000 1.0000
vt 0.000000 0.000000
vt 1.000000 0.000000
vt 1.000000 1.000000
vt 0.000000 1.000000
s 0
f 145/1/1 146/2/1 148/3/1 147/4/1
