# Blender 4.2.8 LTS
# www.blender.org
mtllib board_rf.mtl
o 平面
v 8.420046 21.618923 -0.051058
v 8.420046 22.018883 -0.051058
v 8.420045 0.021082 -0.051061
v 9.219966 21.618923 -0.051059
v 9.219965 0.021082 -0.051061
v 11.719765 21.618923 -0.051059
v 9.219966 22.018883 -0.051058
v 11.719765 22.018883 -0.051059
v 11.719765 0.021082 -0.051062
v 9.219965 -0.378876 -0.051061
v 11.719765 -0.378876 -0.051062
v 12.519684 0.021082 -0.051062
v 12.519686 21.618923 -0.051059
v 15.019485 21.618923 -0.051059
v 12.519686 22.018883 -0.051059
v 15.019486 22.018883 -0.051059
v 15.019485 0.021082 -0.051062
v 12.519684 -0.378876 -0.051062
v 15.019485 -0.378876 -0.051062
v 15.819405 0.021082 -0.051062
v 15.819405 21.618923 -0.051059
v 18.319206 21.618923 -0.051060
v 15.819406 22.018883 -0.051059
v 18.319206 22.018883 -0.051060
v 18.319206 0.021082 -0.051063
v 15.819405 -0.378876 -0.051062
v 18.319206 -0.378876 -0.051063
v 19.119125 0.021082 -0.051063
v 19.119125 21.618923 -0.051060
v 21.618927 21.618923 -0.051060
v 21.618927 19.619122 -0.051060
v 21.618927 18.819202 -0.051061
v 21.618927 16.819403 -0.051061
v 19.119125 22.018883 -0.051060
v 21.618927 22.018883 -0.051060
v 21.618927 16.019484 -0.051061
v 21.618927 14.019683 -0.051061
v 21.618927 13.219763 -0.051061
v 21.618927 11.219963 -0.051062
v 21.618927 10.420042 -0.051062
v 21.618927 8.420244 -0.051062
v 21.618927 7.620323 -0.051062
v 21.618927 5.620523 -0.051062
v 21.618927 4.820604 -0.051062
v 21.618927 2.820803 -0.051063
v 21.618927 2.020882 -0.051063
v 21.618927 0.021080 -0.051063
v 19.119125 -0.378876 -0.051063
v 21.618927 -0.378876 -0.051063
v 22.018885 21.618923 -0.051060
v 22.018885 19.619122 -0.051060
v 22.018883 18.819202 -0.051061
v 22.018885 16.819403 -0.051061
v 22.018885 16.019484 -0.051061
v 22.018885 14.019683 -0.051061
v 22.018885 13.219763 -0.051061
v 22.018885 11.219963 -0.051062
v 22.018885 10.420042 -0.051062
v 22.018885 8.420244 -0.051062
v 22.018885 7.620323 -0.051062
v 22.018885 5.620523 -0.051062
v 22.018885 4.820604 -0.051063
v 22.018885 2.820803 -0.051063
v 22.018885 2.020884 -0.051063
v 22.018883 0.021082 -0.051063
v 8.420046 19.619123 -0.051059
v 8.420046 18.819202 -0.051059
v 8.420046 16.819403 -0.051059
v 8.420046 16.019484 -0.051059
v 8.420046 14.019684 -0.051059
v 8.420046 13.219764 -0.051060
v 8.420046 11.219964 -0.051060
v 8.420046 10.420043 -0.051060
v 8.420046 8.420244 -0.051060
v 8.420046 7.620324 -0.051060
v 8.420046 5.620523 -0.051061
v 8.420046 4.820604 -0.051061
v 8.420046 2.820803 -0.051061
v 8.420046 2.020884 -0.051061
v 9.219966 16.819403 -0.051059
v 9.219966 16.019484 -0.051059
v 9.219966 11.219964 -0.051060
v 9.219966 10.420043 -0.051060
v 9.219966 5.620523 -0.051061
v 9.219966 4.820604 -0.051061
v 9.219966 2.820803 -0.051061
v 9.219966 2.020884 -0.051061
v 9.219966 19.619123 -0.051059
v 11.719765 19.619123 -0.051059
v 9.219966 18.819202 -0.051059
v 11.719765 18.819202 -0.051059
v 11.719765 16.819403 -0.051059
v 11.719765 16.019484 -0.051060
v 9.219966 14.019684 -0.051060
v 11.719765 14.019683 -0.051060
v 9.219966 13.219764 -0.051060
v 11.719765 13.219764 -0.051060
v 11.719765 11.219964 -0.051060
v 11.719765 10.420043 -0.051060
v 9.219966 8.420244 -0.051060
v 11.719765 8.420244 -0.051061
v 9.219966 7.620324 -0.051060
v 11.719765 7.620324 -0.051061
v 11.719765 5.620523 -0.051061
v 11.719765 4.820604 -0.051061
v 11.719765 2.820803 -0.051061
v 11.719765 2.020884 -0.051062
v 12.519685 19.619123 -0.051059
v 12.519685 16.019484 -0.051060
v 12.519685 14.019683 -0.051060
v 12.519685 10.420043 -0.051060
v 15.019485 19.619123 -0.051060
v 12.519685 18.819202 -0.051059
v 15.019485 18.819202 -0.051060
v 12.519686 16.819403 -0.051060
v 15.019485 16.819403 -0.051060
v 15.019485 16.019484 -0.051060
v 15.019485 14.019683 -0.051060
v 12.519685 13.219764 -0.051060
v 15.019485 13.219764 -0.051060
v 12.519685 11.219964 -0.051060
v 15.019485 11.219964 -0.051061
v 15.019485 10.420043 -0.051061
v 12.519685 8.420244 -0.051061
v 15.019485 8.420244 -0.051061
v 12.519685 7.620324 -0.051061
v 15.019485 7.620324 -0.051061
v 12.519685 5.620523 -0.051061
v 15.019485 5.620523 -0.051061
v 12.519685 4.820604 -0.051061
v 15.019485 4.820604 -0.051062
v 12.519684 2.820803 -0.051061
v 15.019485 2.820803 -0.051062
v 12.519684 2.020884 -0.051062
v 15.019485 2.020884 -0.051062
v 15.819405 16.019484 -0.051060
v 15.819405 14.019683 -0.051060
v 15.819405 11.219964 -0.051061
v 15.819405 8.420244 -0.051061
v 15.819405 5.620523 -0.051062
v 15.819405 4.820604 -0.051062
v 15.819405 2.020884 -0.051062
v 15.819405 19.619123 -0.051060
v 18.319206 19.619123 -0.051060
v 15.819405 18.819202 -0.051060
v 18.319206 18.819202 -0.051060
v 15.819405 16.819403 -0.051060
v 18.319206 16.819403 -0.051060
v 18.319206 16.019484 -0.051060
v 18.319206 14.019683 -0.051061
v 15.819405 13.219764 -0.051061
v 18.319206 13.219763 -0.051061
v 18.319206 11.219964 -0.051061
v 18.319206 10.420043 -0.051061
v 15.819405 10.420043 -0.051061
v 18.319206 8.420244 -0.051061
v 15.819405 7.620324 -0.051061
v 18.319206 7.620323 -0.051062
v 18.319206 5.620523 -0.051062
v 18.319206 4.820604 -0.051062
v 15.819405 2.820803 -0.051062
v 18.319206 2.820803 -0.051062
v 18.319206 2.020884 -0.051062
v 19.119125 19.619123 -0.051060
v 19.119125 16.819403 -0.051060
v 19.119125 14.019683 -0.051061
v 19.119125 10.420043 -0.051061
v 19.119125 4.820604 -0.051062
v 19.119125 2.820803 -0.051062
v 19.119125 2.020884 -0.051062
v 19.119125 18.819202 -0.051060
v 19.119125 16.019484 -0.051061
v 19.119125 13.219763 -0.051061
v 19.119125 11.219964 -0.051061
v 19.119125 8.420244 -0.051062
v 19.119125 7.620323 -0.051062
v 19.119125 5.620523 -0.051062
v 8.420046 22.418882 -0.051058
v 9.219966 22.418882 -0.051058
v 11.719765 22.418882 -0.051059
v 12.519686 22.418882 -0.051059
v 15.019486 22.418882 -0.051059
v 15.819406 22.418882 -0.051059
v 18.319206 22.418882 -0.051060
v 19.119125 22.418882 -0.051060
v 21.618927 22.418882 -0.051060
v 22.418884 21.618923 -0.051060
v 22.418884 19.619122 -0.051060
v 22.418882 18.819202 -0.051061
v 22.418884 16.819403 -0.051061
v 22.418884 16.019484 -0.051061
v 22.418884 14.019683 -0.051061
v 22.418884 13.219763 -0.051061
v 22.418884 11.219963 -0.051062
v 22.418884 10.420042 -0.051062
v 22.418884 8.420244 -0.051062
v 22.418884 7.620323 -0.051062
v 22.418884 5.620523 -0.051062
v 22.418884 4.820604 -0.051063
v 22.418884 2.820803 -0.051063
v 22.418884 2.020884 -0.051063
v 22.418882 0.021082 -0.051063
v 9.219965 -0.778876 -0.051061
v 11.719765 -0.778876 -0.051062
v 12.519684 -0.778876 -0.051062
v 15.019485 -0.778876 -0.051062
v 15.819405 -0.778876 -0.051062
v 18.319206 -0.778876 -0.051063
v 19.119125 -0.778876 -0.051063
v 21.618927 -0.778876 -0.051063
vn -0.0000 -0.0000 -1.0000
vn -0.0000 -0.0000 1.0000
vt 0.000000 0.000000
s 0
f 66/1/1 88/1/1 90/1/1 67/1/1
f 72/1/1 82/1/1 83/1/1 73/1/1
f 74/1/1 100/1/1 102/1/1 75/1/1
f 76/1/1 84/1/1 85/1/1 77/1/1
f 68/1/1 80/1/1 81/1/1 69/1/1
f 70/1/1 94/1/1 96/1/1 71/1/1
f 78/1/1 86/1/1 87/1/1 79/1/1
f 89/1/1 108/1/1 113/1/1 91/1/1
f 98/1/1 121/1/1 111/1/1 99/1/1
f 101/1/1 124/1/1 126/1/1 103/1/1
f 104/1/1 128/1/1 130/1/1 105/1/1
f 92/1/1 115/1/1 109/1/1 93/1/1
f 95/1/1 110/1/1 119/1/1 97/1/1
f 106/1/1 132/1/1 134/1/1 107/1/1
f 112/1/1 143/1/1 145/1/1 114/1/1
f 122/1/1 138/1/1 155/1/1 123/1/1
f 125/1/1 139/1/1 157/1/1 127/1/1
f 129/1/1 140/1/1 141/1/1 131/1/1
f 116/1/1 147/1/1 136/1/1 117/1/1
f 118/1/1 137/1/1 151/1/1 120/1/1
f 133/1/1 161/1/1 142/1/1 135/1/1
f 144/1/1 164/1/1 171/1/1 146/1/1
f 153/1/1 174/1/1 167/1/1 154/1/1
f 156/1/1 175/1/1 176/1/1 158/1/1
f 159/1/1 177/1/1 168/1/1 160/1/1
f 148/1/1 165/1/1 172/1/1 149/1/1
f 150/1/1 166/1/1 173/1/1 152/1/1
f 162/1/1 169/1/1 170/1/1 163/1/1
f 1/1/2 2/1/2 178/1/2 3/1/2 5/1/2 10/1/2 203/1/2 204/1/2 11/1/2 9/1/2 12/1/2 18/1/2 205/1/2 206/1/2 19/1/2 17/1/2 20/1/2 26/1/2 207/1/2 208/1/2 27/1/2 25/1/2 28/1/2 48/1/2 209/1/2 210/1/2 49/1/2 47/1/2 65/1/2 202/1/2 201/1/2 64/1/2 46/1/2 45/1/2 63/1/2 200/1/2 199/1/2 62/1/2 44/1/2 43/1/2 61/1/2 198/1/2 197/1/2 60/1/2 42/1/2 41/1/2 59/1/2 196/1/2 195/1/2 58/1/2 40/1/2 39/1/2 57/1/2 194/1/2 193/1/2 56/1/2 38/1/2 37/1/2 55/1/2 192/1/2 191/1/2 54/1/2 36/1/2 33/1/2 53/1/2 190/1/2 189/1/2 52/1/2 32/1/2 31/1/2 51/1/2 188/1/2 187/1/2 50/1/2 30/1/2 35/1/2 186/1/2 185/1/2 34/1/2 29/1/2 22/1/2 24/1/2 184/1/2 183/1/2 23/1/2 21/1/2 14/1/2 16/1/2 182/1/2 181/1/2 15/1/2 13/1/2 6/1/2 8/1/2 180/1/2 179/1/2 7/1/2 4/1/2
o 平面.002
v 8.420046 19.219162 0.504441
v 8.420046 16.419443 0.504441
v 8.420046 13.619723 0.504440
v 8.420046 10.820004 0.504440
v 8.420046 8.020284 0.504440
v 8.420046 5.220564 0.504439
v 8.420046 2.420843 0.504439
v 8.820006 21.618923 0.504441
v 8.820005 19.619123 0.504441
v 8.820005 18.819202 0.504441
v 8.820005 16.819403 0.504441
v 8.820005 16.019484 0.504441
v 8.820005 14.019684 0.504440
v 8.820005 13.219764 0.504440
v 8.820005 11.219964 0.504440
v 8.820005 10.420043 0.504440
v 8.820005 8.420244 0.504440
v 8.820005 7.620324 0.504440
v 8.820005 5.620523 0.504439
v 8.820005 4.820604 0.504439
v 8.820005 2.820803 0.504439
v 8.820005 2.020884 0.504439
v 8.820005 0.021082 0.504439
v 9.219966 19.219162 0.504441
v 11.719765 19.219162 0.504441
v 9.219966 16.419443 0.504441
v 11.719765 16.419443 0.504440
v 9.219966 13.619723 0.504440
v 11.719765 13.619723 0.504440
v 9.219966 10.820004 0.504440
v 11.719765 10.820004 0.504440
v 9.219966 8.020284 0.504440
v 11.719765 8.020284 0.504439
v 9.219966 5.220564 0.504439
v 11.719765 5.220564 0.504439
v 9.219966 2.420843 0.504439
v 11.719765 2.420843 0.504438
v 12.119726 21.618923 0.504441
v 12.119726 19.619123 0.504441
v 12.119725 18.819202 0.504441
v 12.119726 16.819403 0.504440
v 12.119725 16.019484 0.504440
v 12.119725 14.019683 0.504440
v 12.119725 13.219764 0.504440
v 12.119725 11.219964 0.504440
v 12.119725 10.420043 0.504440
v 12.119725 8.420244 0.504439
v 12.119725 7.620324 0.504439
v 12.119725 5.620523 0.504439
v 12.119725 4.820604 0.504439
v 12.119725 2.820803 0.504438
v 12.119724 2.020884 0.504438
v 12.119724 0.021082 0.504438
v 12.519686 19.219162 0.504441
v 15.019485 19.219162 0.504440
v 12.519685 16.419443 0.504440
v 15.019485 16.419443 0.504440
v 12.519685 13.619723 0.504440
v 15.019485 13.619723 0.504440
v 12.519685 10.820004 0.504440
v 15.019485 10.820004 0.504439
v 12.519685 8.020284 0.504439
v 15.019485 8.020284 0.504439
v 12.519685 5.220564 0.504439
v 15.019485 5.220564 0.504438
v 12.519684 2.420843 0.504438
v 15.019485 2.420843 0.504438
v 15.419445 21.618923 0.504441
v 15.419445 19.619123 0.504440
v 15.419445 18.819202 0.504440
v 15.419445 16.819403 0.504440
v 15.419445 16.019484 0.504440
v 15.419445 14.019683 0.504440
v 15.419445 13.219764 0.504439
v 15.419445 11.219964 0.504439
v 15.419445 10.420043 0.504439
v 15.419445 8.420244 0.504439
v 15.419445 7.620324 0.504439
v 15.419445 5.620523 0.504438
v 15.419445 4.820604 0.504438
v 15.419445 2.820803 0.504438
v 15.419445 2.020884 0.504438
v 15.419445 0.021082 0.504438
v 15.819405 19.219162 0.504440
v 18.319206 19.219162 0.504440
v 15.819405 16.419443 0.504440
v 18.319206 16.419443 0.504439
v 15.819405 13.619723 0.504439
v 18.319206 13.619722 0.504439
v 15.819405 10.820004 0.504439
v 18.319206 10.820004 0.504439
v 15.819405 8.020284 0.504439
v 18.319206 8.020283 0.504438
v 15.819405 5.220564 0.504438
v 18.319206 5.220564 0.504438
v 15.819405 2.420843 0.504438
v 18.319206 2.420843 0.504438
v 18.719166 21.618923 0.504440
v 18.719166 19.619123 0.504440
v 18.719166 18.819202 0.504440
v 18.719166 16.819403 0.504439
v 18.719166 16.019484 0.504439
v 18.719166 14.019683 0.504439
v 18.719166 13.219763 0.504439
v 18.719166 11.219964 0.504439
v 18.719166 10.420043 0.504439
v 18.719166 8.420244 0.504438
v 18.719166 7.620323 0.504438
v 18.719166 5.620523 0.504438
v 18.719166 4.820604 0.504438
v 18.719166 2.820803 0.504438
v 18.719166 2.020884 0.504438
v 18.719166 0.021082 0.504437
v 19.119125 19.219162 0.504440
v 21.618927 19.219162 0.504439
v 19.119125 16.419443 0.504439
v 21.618927 16.419443 0.504439
v 19.119125 13.619722 0.504439
v 21.618927 13.619722 0.504439
v 19.119125 10.820004 0.504439
v 21.618927 10.820004 0.504438
v 19.119125 8.020283 0.504438
v 21.618927 8.020283 0.504438
v 19.119125 5.220564 0.504438
v 21.618927 5.220564 0.504438
v 19.119125 2.420843 0.504438
v 21.618927 2.420841 0.504437
v 8.420046 22.018883 0.448942
v 8.420045 -0.378876 0.448939
v 9.219966 22.018883 0.448942
v 11.719765 22.018883 0.448941
v 9.219965 -0.378876 0.448939
v 11.719765 -0.378876 0.448938
v 12.519686 22.018883 0.448941
v 15.019486 22.018883 0.448941
v 12.519684 -0.378876 0.448938
v 15.019485 -0.378876 0.448938
v 15.819406 22.018883 0.448941
v 18.319206 22.018883 0.448940
v 15.819405 -0.378876 0.448938
v 18.319206 -0.378876 0.448937
v 19.119125 22.018883 0.448940
v 21.618927 22.018883 0.448940
v 19.119125 -0.378876 0.448937
v 21.618927 -0.378876 0.448937
v 22.018885 21.618923 0.448940
v 22.018885 19.619122 0.448940
v 22.018883 18.819202 0.448939
v 22.018885 16.819403 0.448939
v 22.018885 16.019484 0.448939
v 22.018885 14.019683 0.448939
v 22.018885 13.219763 0.448939
v 22.018885 11.219963 0.448938
v 22.018885 10.420042 0.448938
v 22.018885 8.420244 0.448938
v 22.018885 7.620323 0.448938
v 22.018885 5.620523 0.448938
v 22.018885 4.820604 0.448937
v 22.018885 2.820803 0.448937
v 22.018885 2.020884 0.448937
v 22.018883 0.021082 0.448937
l 219 218
l 221 220
l 222 223
l 224 225
l 228 229
l 232 233
l 226 227
l 230 231
l 234 235
l 236 237
l 238 239
l 240 241
l 242 243
l 244 245
l 246 247
l 249 248
l 251 250
l 252 253
l 254 255
l 258 259
l 262 263
l 256 257
l 260 261
l 264 265
l 266 267
l 268 269
l 270 271
l 272 273
l 274 275
l 276 277
l 279 278
l 281 280
l 282 283
l 284 285
l 288 289
l 292 293
l 286 287
l 290 291
l 294 295
l 296 297
l 298 299
l 300 301
l 302 303
l 304 305
l 306 307
l 309 308
l 311 310
l 312 313
l 314 315
l 318 319
l 322 323
l 316 317
l 320 321
l 324 325
l 326 327
l 328 329
l 330 331
l 332 333
l 334 335
l 336 337
l 341 340
l 342 343
l 345 344
l 346 347
l 349 348
l 350 351
l 353 352
l 354 355
l 357 356
l 359 358
l 361 360
l 363 362
l 367 366
l 371 370
l 365 364
l 369 368
o 平面.003
v 23.045174 22.678387 0.000001
v 7.764840 22.678387 0.000001
v 23.045174 -1.142818 0.000001
v 7.764840 -1.142818 0.000001
vn -0.0000 -0.0000 1.0000
vt 0.000000 0.000000
vt 1.000000 0.000000
vt 1.000000 1.000000
vt 0.000000 1.000000
s 0
f 372/2/3 373/3/3 375/4/3 374/5/3
