# Blender 4.2.8 LTS
# www.blender.org
mtllib board_right_front.mtl
o 平面
v 10.980000 -1.260000 0.000000
v 9.180000 -1.260000 0.000000
v 8.460000 -1.260000 0.000000
v 8.460000 -0.900000 0.000000
v 9.180000 -0.900000 0.000000
v 10.980000 -0.900000 0.000000
v 11.700000 -0.900000 0.000000
v 13.500000 -0.900000 0.000000
v 14.220000 -0.900000 0.000000
v 16.020000 -0.900000 0.000000
v 16.740000 -0.900000 0.000000
v 18.540001 -0.900000 0.000000
v 18.540001 0.900000 0.000000
v 18.900000 -0.900000 0.000000
v 18.900000 0.900000 0.000000
v 13.500000 -1.260000 0.000000
v 11.700000 -1.260000 0.000000
v 14.220000 -1.260000 0.000000
v 16.020000 -1.260000 0.000000
v 16.740000 -1.260000 0.000000
v 18.540001 -1.260000 0.000000
v 18.540001 1.620000 0.000000
v 18.540001 3.420000 0.000000
v 18.900000 1.620000 0.000000
v 18.900000 3.420000 0.000000
v 18.540001 4.140000 0.000000
v 18.540001 5.940000 0.000000
v 18.900000 4.140000 0.000000
v 18.900000 5.940000 0.000000
v 18.540001 6.660000 0.000000
v 18.540001 8.460000 0.000000
v 18.900000 6.660000 0.000000
v 18.900000 8.460000 0.000000
v 18.540001 9.180000 0.000000
v 18.540001 10.980000 0.000000
v 18.900000 9.180000 0.000000
v 18.900000 10.980000 0.000000
v 18.540001 11.700000 0.000000
v 18.540001 13.500000 0.000000
v 18.900000 11.700000 0.000000
v 18.900000 13.500000 0.000000
v 18.540001 14.219999 0.000000
v 18.540001 16.020000 0.000000
v 18.900000 14.219999 0.000000
v 18.900000 16.020000 0.000000
v 18.540001 16.740000 0.000000
v 8.460000 18.540001 0.000000
v 9.180000 18.540001 0.000000
v 10.980000 18.540001 0.000000
v 11.700000 18.540001 0.000000
v 13.500000 18.540001 0.000000
v 14.220000 18.540001 0.000000
v 16.020000 18.540001 0.000000
v 16.740000 18.540001 0.000000
v 18.540001 18.540001 0.000000
v 18.900000 16.740000 0.000000
v 18.900000 18.540001 0.000000
v 8.460000 18.900000 0.000000
v 9.180000 18.900000 0.000000
v 10.980000 18.900000 0.000000
v 11.700000 18.900000 0.000000
v 13.500000 18.900000 0.000000
v 14.220000 18.900000 0.000000
v 16.020000 18.900000 0.000000
v 16.740000 18.900000 0.000000
v 18.540001 18.900000 0.000000
v 8.460000 0.900000 0.000000
v 9.180000 0.900000 0.000000
v 10.980000 0.900000 0.000000
v 11.700000 0.900000 0.000000
v 13.500000 0.900000 0.000000
v 14.220000 0.900000 0.000000
v 16.020000 0.900000 0.000000
v 16.740000 0.900000 0.000000
v 8.460000 1.620000 0.000000
v 10.980000 1.620000 0.000000
v 14.220000 1.620000 0.000000
v 8.460000 3.420000 0.000000
v 9.180000 3.420000 0.000000
v 9.180000 1.620000 0.000000
v 10.980000 3.420000 0.000000
v 11.700000 1.620000 0.000000
v 11.700000 3.420000 0.000000
v 13.500000 1.620000 0.000000
v 13.500000 3.420000 0.000000
v 14.220000 3.420000 0.000000
v 16.020000 1.620000 0.000000
v 16.020000 3.420000 0.000000
v 16.740000 1.620000 0.000000
v 16.740000 3.420000 0.000000
v 8.460000 4.140000 0.000000
v 9.180000 4.140000 0.000000
v 10.980000 4.140000 0.000000
v 11.700000 4.140000 0.000000
v 14.220000 4.140000 0.000000
v 16.020000 4.140000 0.000000
v 8.460000 5.940000 0.000000
v 9.180000 5.940000 0.000000
v 10.980000 5.940000 0.000000
v 11.700000 5.940000 0.000000
v 13.500000 4.140000 0.000000
v 13.500000 5.940000 0.000000
v 14.220000 5.940000 0.000000
v 16.020000 5.940000 0.000000
v 16.740000 4.140000 0.000000
v 16.740000 5.940000 0.000000
v 10.980000 6.660000 0.000000
v 16.740000 6.660000 0.000000
v 8.460000 6.660000 0.000000
v 8.460000 8.460000 0.000000
v 9.180000 8.460000 0.000000
v 9.180000 6.660000 0.000000
v 10.980000 8.460000 0.000000
v 11.700000 6.660000 0.000000
v 11.700000 8.460000 0.000000
v 13.500000 6.660000 0.000000
v 13.500000 8.460000 0.000000
v 14.220000 6.660000 0.000000
v 14.220000 8.460000 0.000000
v 16.020000 6.660000 0.000000
v 16.020000 8.460000 0.000000
v 16.740000 8.460000 0.000000
v 8.460000 9.180000 0.000000
v 9.180000 9.180000 0.000000
v 13.500000 9.180000 0.000000
v 14.220000 9.180000 0.000000
v 16.020000 9.180000 0.000000
v 16.740000 9.180000 0.000000
v 8.460000 10.980000 0.000000
v 9.180000 10.980000 0.000000
v 10.980000 9.180000 0.000000
v 10.980000 10.980000 0.000000
v 11.700000 9.180000 0.000000
v 11.700000 10.980000 0.000000
v 13.500000 10.980000 0.000000
v 14.220000 10.980000 0.000000
v 16.020000 10.980000 0.000000
v 16.740000 10.980000 0.000000
v 9.180000 11.700000 0.000000
v 8.460000 11.700000 0.000000
v 8.460000 13.500000 0.000000
v 9.180000 13.500000 0.000000
v 10.980000 11.700000 0.000000
v 10.980000 13.500000 0.000000
v 11.700000 11.700000 0.000000
v 11.700000 13.500000 0.000000
v 13.500000 11.700000 0.000000
v 13.500000 13.500000 0.000000
v 14.220000 11.700000 0.000000
v 14.220000 13.500000 0.000000
v 16.020000 11.700000 0.000000
v 16.020000 13.500000 0.000000
v 16.740000 11.700000 0.000000
v 16.740000 13.500000 0.000000
v 8.460000 14.219999 0.000000
v 10.980000 14.219999 0.000000
v 13.500000 14.219999 0.000000
v 14.220000 14.219999 0.000000
v 16.740000 14.219999 0.000000
v 8.460000 16.020000 0.000000
v 9.180000 16.020000 0.000000
v 9.180000 14.219999 0.000000
v 10.980000 16.020000 0.000000
v 11.700000 14.219999 0.000000
v 11.700000 16.020000 0.000000
v 13.500000 16.020000 0.000000
v 14.220000 16.020000 0.000000
v 16.020000 14.219999 0.000000
v 16.020000 16.020000 0.000000
v 16.740000 16.020000 0.000000
v 9.180000 16.740000 0.000000
v 14.220000 16.740000 0.000000
v 16.020000 16.740000 0.000000
v 16.740000 16.740000 0.000000
v 8.460000 16.740000 0.000000
v 10.980000 16.740000 0.000000
v 11.700000 16.740000 0.000000
v 13.500000 16.740000 0.000000
vn -0.0000 -0.0000 1.0000
vn -0.0000 -0.0000 -1.0000
vt 1.000000 1.000000
vt 1.000000 0.000000
vt 0.000000 0.000000
vt 0.000000 1.000000
s 0
f 13/1/1 12/2/1 14/2/1 15/1/1
f 8/2/1 7/2/1 17/2/1 16/2/1
f 12/2/1 11/2/1 20/2/1 21/2/1
f 6/2/1 5/3/1 2/3/1 1/2/1
f 10/2/1 9/2/1 18/2/1 19/2/1
f 23/1/1 22/2/1 24/2/1 25/1/1
f 27/1/1 26/2/1 28/2/1 29/1/1
f 31/1/1 30/2/1 32/2/1 33/1/1
f 35/1/1 34/2/1 36/2/1 37/1/1
f 39/1/1 38/2/1 40/2/1 41/1/1
f 43/1/1 42/2/1 44/2/1 45/1/1
f 47/1/1 4/2/1 5/3/1 6/2/1 7/2/1 8/2/1 9/2/1 10/2/1 11/2/1 12/2/1 13/1/1 22/2/1 23/1/1 26/2/1 27/1/1 30/2/1 31/1/1 34/2/1 35/1/1 38/2/1 39/1/1 42/2/1 43/1/1 46/2/1 55/1/1 54/1/1 53/1/1 52/1/1 51/1/1 50/1/1 49/1/1 48/4/1
f 55/1/1 46/2/1 56/2/1 57/1/1
f 52/1/1 53/1/1 64/1/1 63/1/1
f 48/4/1 49/1/1 60/1/1 59/4/1
f 50/1/1 51/1/1 62/1/1 61/1/1
f 54/1/1 55/1/1 66/1/1 65/1/1
f 67/3/2 75/3/2 80/3/2 68/3/2
f 69/3/2 76/3/2 82/3/2 70/3/2
f 71/3/2 84/3/2 77/3/2 72/3/2
f 73/3/2 87/3/2 89/3/2 74/3/2
f 78/3/2 91/3/2 92/3/2 79/3/2
f 81/3/2 93/3/2 94/3/2 83/3/2
f 85/3/2 101/3/2 95/3/2 86/3/2
f 88/3/2 96/3/2 105/3/2 90/3/2
f 97/3/2 109/3/2 112/3/2 98/3/2
f 99/3/2 107/3/2 114/3/2 100/3/2
f 102/3/2 116/3/2 118/3/2 103/3/2
f 104/3/2 120/3/2 108/3/2 106/3/2
f 110/3/2 123/3/2 124/3/2 111/3/2
f 113/3/2 131/3/2 133/3/2 115/3/2
f 117/3/2 125/3/2 126/3/2 119/3/2
f 121/3/2 127/3/2 128/3/2 122/3/2
f 129/3/2 140/3/2 139/3/2 130/3/2
f 132/3/2 143/3/2 145/3/2 134/3/2
f 135/3/2 147/3/2 149/3/2 136/3/2
f 137/3/2 151/3/2 153/3/2 138/3/2
f 141/3/2 155/3/2 162/3/2 142/3/2
f 144/3/2 156/3/2 164/3/2 146/3/2
f 148/3/2 157/3/2 158/3/2 150/3/2
f 152/3/2 168/3/2 159/3/2 154/3/2
f 160/3/2 175/3/2 171/3/2 161/3/2
f 163/3/2 176/3/2 177/3/2 165/3/2
f 166/3/2 178/3/2 172/3/2 167/3/2
f 169/3/2 173/3/2 174/3/2 170/3/2
l 3 4
l 58 47
o 平面.001
v 8.460000 -0.900000 1.000000
v 8.460000 0.900000 1.000000
v 9.180000 0.900000 1.000000
v 9.180000 -0.900000 1.000000
v 10.980000 -0.900000 1.000000
v 10.980000 0.900000 1.000000
v 11.700000 -0.900000 1.000000
v 11.700000 0.900000 1.000000
v 13.500000 -0.900000 1.000000
v 13.500000 0.900000 1.000000
v 14.220000 -0.900000 1.000000
v 14.220000 0.900000 1.000000
v 16.020000 -0.900000 1.000000
v 16.020000 0.900000 1.000000
v 16.740000 -0.900000 1.000000
v 16.740000 0.900000 1.000000
v 18.540001 -0.900000 1.000000
v 18.540001 0.900000 1.000000
v 8.460000 1.620000 1.000000
v 10.980000 1.620000 1.000000
v 14.220000 1.620000 1.000000
v 8.460000 3.420000 1.000000
v 9.180000 3.420000 1.000000
v 9.180000 1.620000 1.000000
v 10.980000 3.420000 1.000000
v 11.700000 1.620000 1.000000
v 11.700000 3.420000 1.000000
v 13.500000 1.620000 1.000000
v 13.500000 3.420000 1.000000
v 14.220000 3.420000 1.000000
v 16.020000 1.620000 1.000000
v 16.020000 3.420000 1.000000
v 16.740000 1.620000 1.000000
v 16.740000 3.420000 1.000000
v 18.540001 1.620000 1.000000
v 18.540001 3.420000 1.000000
v 8.460000 4.140000 1.000000
v 9.180000 4.140000 1.000000
v 10.980000 4.140000 1.000000
v 11.700000 4.140000 1.000000
v 14.220000 4.140000 1.000000
v 16.020000 4.140000 1.000000
v 8.460000 5.940000 1.000000
v 9.180000 5.940000 1.000000
v 10.980000 5.940000 1.000000
v 11.700000 5.940000 1.000000
v 13.500000 4.140000 1.000000
v 13.500000 5.940000 1.000000
v 14.220000 5.940000 1.000000
v 16.020000 5.940000 1.000000
v 16.740000 4.140000 1.000000
v 16.740000 5.940000 1.000000
v 18.540001 4.140000 1.000000
v 18.540001 5.940000 1.000000
v 10.980000 6.660000 1.000000
v 16.740000 6.660000 1.000000
v 8.460000 6.660000 1.000000
v 8.460000 8.460000 1.000000
v 9.180000 8.460000 1.000000
v 9.180000 6.660000 1.000000
v 10.980000 8.460000 1.000000
v 11.700000 6.660000 1.000000
v 11.700000 8.460000 1.000000
v 13.500000 6.660000 1.000000
v 13.500000 8.460000 1.000000
v 14.220000 6.660000 1.000000
v 14.220000 8.460000 1.000000
v 16.020000 6.660000 1.000000
v 16.020000 8.460000 1.000000
v 16.740000 8.460000 1.000000
v 18.540001 6.660000 1.000000
v 18.540001 8.460000 1.000000
v 8.460000 9.180000 1.000000
v 9.180000 9.180000 1.000000
v 13.500000 9.180000 1.000000
v 14.220000 9.180000 1.000000
v 16.020000 9.180000 1.000000
v 16.740000 9.180000 1.000000
v 18.540001 9.180000 1.000000
v 8.460000 10.980000 1.000000
v 9.180000 10.980000 1.000000
v 10.980000 9.180000 1.000000
v 10.980000 10.980000 1.000000
v 11.700000 9.180000 1.000000
v 11.700000 10.980000 1.000000
v 13.500000 10.980000 1.000000
v 14.220000 10.980000 1.000000
v 16.020000 10.980000 1.000000
v 16.740000 10.980000 1.000000
v 18.540001 10.980000 1.000000
v 9.180000 11.700000 1.000000
v 18.540001 11.700000 1.000000
v 8.460000 11.700000 1.000000
v 8.460000 13.500000 1.000000
v 9.180000 13.500000 1.000000
v 10.980000 11.700000 1.000000
v 10.980000 13.500000 1.000000
v 11.700000 11.700000 1.000000
v 11.700000 13.500000 1.000000
v 13.500000 11.700000 1.000000
v 13.500000 13.500000 1.000000
v 14.220000 11.700000 1.000000
v 14.220000 13.500000 1.000000
v 16.020000 11.700000 1.000000
v 16.020000 13.500000 1.000000
v 16.740000 11.700000 1.000000
v 16.740000 13.500000 1.000000
v 18.540001 13.500000 1.000000
v 8.460000 14.219999 1.000000
v 10.980000 14.219999 1.000000
v 13.500000 14.219999 1.000000
v 14.220000 14.219999 1.000000
v 16.740000 14.219999 1.000000
v 18.540001 14.219999 1.000000
v 8.460000 16.020000 1.000000
v 9.180000 16.020000 1.000000
v 9.180000 14.219999 1.000000
v 10.980000 16.020000 1.000000
v 11.700000 14.219999 1.000000
v 11.700000 16.020000 1.000000
v 13.500000 16.020000 1.000000
v 14.220000 16.020000 1.000000
v 16.020000 14.219999 1.000000
v 16.020000 16.020000 1.000000
v 16.740000 16.020000 1.000000
v 18.540001 16.020000 1.000000
v 9.180000 16.740000 1.000000
v 14.220000 16.740000 1.000000
v 16.020000 16.740000 1.000000
v 16.740000 16.740000 1.000000
v 18.540001 16.740000 1.000000
v 8.460000 16.740000 1.000000
v 8.460000 18.540001 1.000000
v 9.180000 18.540001 1.000000
v 10.980000 16.740000 1.000000
v 10.980000 18.540001 1.000000
v 11.700000 16.740000 1.000000
v 11.700000 18.540001 1.000000
v 13.500000 16.740000 1.000000
v 13.500000 18.540001 1.000000
v 14.220000 18.540001 1.000000
v 16.020000 18.540001 1.000000
v 16.740000 18.540001 1.000000
v 18.540001 18.540001 1.000000
l 179 180
l 183 182
l 183 184
l 185 186
l 187 188
l 187 185
l 186 188
l 190 189
l 191 192
l 193 194
l 195 196
l 195 193
l 194 196
l 181 182
l 181 184
l 191 189
l 190 192
l 204 205
l 206 207
l 206 204
l 205 207
l 209 210
l 211 212
l 213 214
l 213 211
l 212 214
l 201 202
l 201 203
l 208 210
l 216 217
l 219 220
l 225 226
l 224 226
l 229 230
l 231 232
l 231 229
l 230 232
l 222 223
l 227 228
l 235 236
l 240 241
l 242 243
l 242 240
l 241 243
l 245 244
l 246 247
l 249 250
l 248 250
l 237 238
l 237 239
l 246 244
l 245 247
l 256 257
l 254 255
l 260 261
l 262 263
l 263 264
l 267 268
l 259 261
l 265 266
l 271 272
l 274 275
l 276 277
l 278 279
l 278 276
l 277 279
l 281 280
l 282 283
l 284 285
l 285 286
l 273 275
l 282 280
l 281 283
l 291 292
l 297 298
l 298 299
l 301 302
l 303 304
l 294 295
l 294 296
l 300 302
l 308 309
l 306 307
l 310 311
l 313 314
l 315 316
l 317 318
l 317 315
l 316 318
l 321 322
l 312 314
l 319 320
l 202 198
l 199 209
l 197 200
l 198 203
l 208 199
l 218 225
l 215 221
l 217 223
l 218 224
l 227 219
l 220 228
l 222 216
l 234 249
l 238 233
l 233 239
l 234 248
l 262 253
l 252 260
l 251 258
l 253 264
l 265 254
l 255 266
l 256 267
l 257 268
l 259 252
l 284 270
l 269 274
l 270 286
l 273 269
l 297 289
l 295 288
l 290 301
l 287 293
l 288 296
l 289 299
l 300 290
l 291 303
l 292 304
l 305 313
l 319 306
l 307 320
l 308 321
l 309 322
l 312 305
o 平面.003
v 7.625320 -1.767422 0.000000
v 19.621611 -1.767422 0.000000
v 7.625320 19.757381 0.000001
v 19.621611 19.757381 0.000001
vn -0.0000 -0.0000 1.0000
vt 0.000000 0.000000
vt 1.000000 0.000000
vt 1.000000 1.000000
vt 0.000000 1.000000
s 0
f 323/5/3 324/6/3 326/7/3 325/8/3
