# Blender 4.2.8 LTS
# www.blender.org
mtllib board_left_front.mtl
o 平面
v -0.900000 -0.900000 0.000000
v 0.900000 -0.900000 0.000000
v -0.900000 0.900000 0.000000
v 1.620000 -0.900000 0.000000
v 3.420000 -0.900000 0.000000
v 9.180000 -1.260000 0.000000
v -1.260000 -0.900000 0.000000
v -1.260000 0.900000 0.000000
v 4.140000 -0.900000 0.000000
v 5.940000 -0.900000 0.000000
v 8.460000 -1.260000 0.000000
v 6.660000 -1.260000 0.000000
v 6.660000 -0.900000 0.000000
v 8.460000 -0.900000 0.000000
v 5.940000 -1.260000 0.000000
v 9.180000 -0.900000 0.000000
v 4.140000 -1.260000 0.000000
v 3.420000 -1.260000 0.000000
v 1.620000 -1.260000 0.000000
v 0.900000 -1.260000 0.000000
v -0.900000 -1.260000 0.000000
v -0.900000 1.620000 0.000000
v -0.900000 3.420000 0.000000
v -1.260000 1.620000 0.000000
v -1.260000 3.420000 0.000000
v -0.900000 4.140000 0.000000
v -0.900000 5.940000 0.000000
v -1.260000 4.140000 0.000000
v -1.260000 5.940000 0.000000
v -0.900000 6.660000 0.000000
v -0.900000 8.460000 0.000000
v -1.260000 6.660000 0.000000
v -1.260000 8.460000 0.000000
v -0.900000 9.180000 0.000000
v -0.900000 10.980000 0.000000
v -1.260000 9.180000 0.000000
v -1.260000 10.980000 0.000000
v -0.900000 11.700000 0.000000
v -0.900000 13.500000 0.000000
v -1.260000 11.700000 0.000000
v -1.260000 13.500000 0.000000
v -0.900000 14.219999 0.000000
v -0.900000 16.020000 0.000000
v -1.260000 14.219999 0.000000
v -1.260000 16.020000 0.000000
v -0.900000 16.740000 0.000000
v -0.900000 18.540001 0.000000
v 0.900000 18.540001 0.000000
v 1.620000 18.540001 0.000000
v 3.420000 18.540001 0.000000
v -1.260000 16.740000 0.000000
v -1.260000 18.540001 0.000000
v 4.140000 18.540001 0.000000
v 5.940000 18.540001 0.000000
v 6.660000 18.540001 0.000000
v 8.460000 18.540001 0.000000
v 9.180000 18.540001 0.000000
v -0.900000 18.900000 0.000000
v 0.900000 18.900000 0.000000
v 1.620000 18.900000 0.000000
v 3.420000 18.900000 0.000000
v 4.140000 18.900000 0.000000
v 5.940000 18.900000 0.000000
v 6.660000 18.900000 0.000000
v 8.460000 18.900000 0.000000
v 9.180000 18.900000 0.000000
v 0.900000 0.900000 0.000000
v 1.620000 0.900000 0.000000
v 3.420000 0.900000 0.000000
v 4.140000 0.900000 0.000000
v 5.940000 0.900000 0.000000
v 6.660000 0.900000 0.000000
v 8.460000 0.900000 0.000000
v 9.180000 0.900000 0.000000
v 0.900000 1.620000 0.000000
v 1.620000 1.620000 0.000000
v 3.420000 1.620000 0.000000
v 4.140000 1.620000 0.000000
v 5.940000 1.620000 0.000000
v 6.660000 1.620000 0.000000
v 8.460000 1.620000 0.000000
v 0.900000 3.420000 0.000000
v 1.620000 3.420000 0.000000
v 3.420000 3.420000 0.000000
v 4.140000 3.420000 0.000000
v 5.940000 3.420000 0.000000
v 6.660000 3.420000 0.000000
v 8.460000 3.420000 0.000000
v 9.180000 3.420000 0.000000
v 9.180000 1.620000 0.000000
v 0.900000 4.140000 0.000000
v 5.940000 4.140000 0.000000
v 6.660000 4.140000 0.000000
v 8.460000 4.140000 0.000000
v 9.180000 4.140000 0.000000
v 0.900000 5.940000 0.000000
v 1.620000 4.140000 0.000000
v 1.620000 5.940000 0.000000
v 3.420000 4.140000 0.000000
v 3.420000 5.940000 0.000000
v 4.140000 4.140000 0.000000
v 4.140000 5.940000 0.000000
v 5.940000 5.940000 0.000000
v 6.660000 5.940000 0.000000
v 8.460000 5.940000 0.000000
v 9.180000 5.940000 0.000000
v 0.900000 6.660000 0.000000
v 1.620000 6.660000 0.000000
v 0.900000 8.460000 0.000000
v 1.620000 8.460000 0.000000
v 3.420000 6.660000 0.000000
v 3.420000 8.460000 0.000000
v 4.140000 6.660000 0.000000
v 4.140000 8.460000 0.000000
v 5.940000 6.660000 0.000000
v 5.940000 8.460000 0.000000
v 6.660000 6.660000 0.000000
v 6.660000 8.460000 0.000000
v 8.460000 6.660000 0.000000
v 8.460000 8.460000 0.000000
v 9.180000 8.460000 0.000000
v 9.180000 6.660000 0.000000
v 3.420000 9.180000 0.000000
v 4.140000 9.180000 0.000000
v 8.460000 9.180000 0.000000
v 9.180000 9.180000 0.000000
v 0.900000 9.180000 0.000000
v 0.900000 10.980000 0.000000
v 1.620000 9.180000 0.000000
v 1.620000 10.980000 0.000000
v 3.420000 10.980000 0.000000
v 4.140000 10.980000 0.000000
v 5.940000 9.180000 0.000000
v 5.940000 10.980000 0.000000
v 6.660000 9.180000 0.000000
v 6.660000 10.980000 0.000000
v 8.460000 10.980000 0.000000
v 9.180000 10.980000 0.000000
v 0.900000 11.700000 0.000000
v 4.140000 11.700000 0.000000
v 5.940000 11.700000 0.000000
v 9.180000 11.700000 0.000000
v 0.900000 13.500000 0.000000
v 1.620000 11.700000 0.000000
v 1.620000 13.500000 0.000000
v 3.420000 11.700000 0.000000
v 3.420000 13.500000 0.000000
v 4.140000 13.500000 0.000000
v 5.940000 13.500000 0.000000
v 6.660000 11.700000 0.000000
v 6.660000 13.500000 0.000000
v 8.460000 11.700000 0.000000
v 8.460000 13.500000 0.000000
v 9.180000 13.500000 0.000000
v 4.140000 14.219999 0.000000
v 5.940000 14.219999 0.000000
v 8.460000 14.219999 0.000000
v 0.900000 14.219999 0.000000
v 0.900000 16.020000 0.000000
v 1.620000 14.219999 0.000000
v 1.620000 16.020000 0.000000
v 3.420000 14.219999 0.000000
v 3.420000 16.020000 0.000000
v 4.140000 16.020000 0.000000
v 5.940000 16.020000 0.000000
v 6.660000 14.219999 0.000000
v 6.660000 16.020000 0.000000
v 8.460000 16.020000 0.000000
v 9.180000 16.020000 0.000000
v 9.180000 14.219999 0.000000
v 0.900000 16.740000 0.000000
v 3.420000 16.740000 0.000000
v 5.940000 16.740000 0.000000
v 9.180000 16.740000 0.000000
v 1.620000 16.740000 0.000000
v 4.140000 16.740000 0.000000
v 6.660000 16.740000 0.000000
v 8.460000 16.740000 0.000000
vn -0.0000 -0.0000 1.0000
vn -0.0000 -0.0000 -1.0000
vt 0.000000 0.000000
vt 0.000000 1.000000
vt 1.000000 0.000000
vt 1.000000 1.000000
s 0
f 1/1/1 3/2/1 8/2/1 7/1/1
f 10/3/1 9/3/1 17/3/1 15/3/1
f 5/3/1 4/3/1 19/3/1 18/3/1
f 2/3/1 1/1/1 21/1/1 20/3/1
f 14/3/1 13/3/1 12/3/1 11/3/1
f 22/1/1 23/2/1 25/2/1 24/1/1
f 26/1/1 27/2/1 29/2/1 28/1/1
f 30/1/1 31/2/1 33/2/1 32/1/1
f 34/1/1 35/2/1 37/2/1 36/1/1
f 38/1/1 39/2/1 41/2/1 40/1/1
f 42/1/1 43/2/1 45/2/1 44/1/1
f 46/1/1 47/2/1 52/2/1 51/1/1
f 55/4/1 56/4/1 65/4/1 64/4/1
f 47/2/1 48/4/1 59/4/1 58/2/1
f 53/4/1 54/4/1 63/4/1 62/4/1
f 49/4/1 50/4/1 61/4/1 60/4/1
f 67/1/2 75/1/2 76/1/2 68/1/2
f 73/1/2 81/1/2 90/1/2 74/1/2
f 69/1/2 77/1/2 78/1/2 70/1/2
f 71/1/2 79/1/2 80/1/2 72/1/2
f 82/1/2 91/1/2 97/1/2 83/1/2
f 88/1/2 94/1/2 95/1/2 89/1/2
f 84/1/2 99/1/2 101/1/2 85/1/2
f 86/1/2 92/1/2 93/1/2 87/1/2
f 96/1/2 107/1/2 108/1/2 98/1/2
f 105/1/2 119/1/2 122/1/2 106/1/2
f 100/1/2 111/1/2 113/1/2 102/1/2
f 103/1/2 115/1/2 117/1/2 104/1/2
f 109/1/2 127/1/2 129/1/2 110/1/2
f 120/1/2 125/1/2 126/1/2 121/1/2
f 112/1/2 123/1/2 124/1/2 114/1/2
f 116/1/2 133/1/2 135/1/2 118/1/2
f 128/1/2 139/1/2 144/1/2 130/1/2
f 137/1/2 152/1/2 142/1/2 138/1/2
f 131/1/2 146/1/2 140/1/2 132/1/2
f 134/1/2 141/1/2 150/1/2 136/1/2
f 143/1/2 158/1/2 160/1/2 145/1/2
f 153/1/2 157/1/2 170/1/2 154/1/2
f 147/1/2 162/1/2 155/1/2 148/1/2
f 149/1/2 156/1/2 166/1/2 151/1/2
f 159/1/2 171/1/2 175/1/2 161/1/2
f 168/1/2 178/1/2 174/1/2 169/1/2
f 163/1/2 172/1/2 176/1/2 164/1/2
f 165/1/2 173/1/2 177/1/2 167/1/2
f 3/2/1 1/1/1 2/3/1 4/3/1 5/3/1 9/3/1 10/3/1 13/3/1 14/3/1 16/1/1 57/2/1 56/4/1 55/4/1 54/4/1 53/4/1 50/4/1 49/4/1 48/4/1 47/2/1 46/1/1 43/2/1 42/1/1 39/2/1 38/1/1 35/2/1 34/1/1 31/2/1 30/1/1 27/2/1 26/1/1 23/2/1 22/1/1
l 16 6
l 57 66
o 平面.001
v -0.900000 -0.900000 1.000000
v 0.900000 -0.900000 1.000000
v -0.900000 0.900000 1.000000
v 0.900000 0.900000 1.000000
v 1.620000 -0.900000 1.000000
v 1.620000 0.900000 1.000000
v 3.420000 -0.900000 1.000000
v 3.420000 0.900000 1.000000
v 4.140000 -0.900000 1.000000
v 4.140000 0.900000 1.000000
v 5.940000 -0.900000 1.000000
v 5.940000 0.900000 1.000000
v 6.660000 -0.900000 1.000000
v 6.660000 0.900000 1.000000
v 8.460000 -0.900000 1.000000
v 8.460000 0.900000 1.000000
v 9.180000 0.900000 1.000000
v 9.180000 -0.900000 1.000000
v 0.900000 1.620000 1.000000
v 1.620000 1.620000 1.000000
v 3.420000 1.620000 1.000000
v 4.140000 1.620000 1.000000
v 5.940000 1.620000 1.000000
v 6.660000 1.620000 1.000000
v 8.460000 1.620000 1.000000
v -0.900000 1.620000 1.000000
v -0.900000 3.420000 1.000000
v 0.900000 3.420000 1.000000
v 1.620000 3.420000 1.000000
v 3.420000 3.420000 1.000000
v 4.140000 3.420000 1.000000
v 5.940000 3.420000 1.000000
v 6.660000 3.420000 1.000000
v 8.460000 3.420000 1.000000
v 9.180000 3.420000 1.000000
v 9.180000 1.620000 1.000000
v -0.900000 4.140000 1.000000
v 0.900000 4.140000 1.000000
v 5.940000 4.140000 1.000000
v 6.660000 4.140000 1.000000
v 8.460000 4.140000 1.000000
v 9.180000 4.140000 1.000000
v -0.900000 5.940000 1.000000
v 0.900000 5.940000 1.000000
v 1.620000 4.140000 1.000000
v 1.620000 5.940000 1.000000
v 3.420000 4.140000 1.000000
v 3.420000 5.940000 1.000000
v 4.140000 4.140000 1.000000
v 4.140000 5.940000 1.000000
v 5.940000 5.940000 1.000000
v 6.660000 5.940000 1.000000
v 8.460000 5.940000 1.000000
v 9.180000 5.940000 1.000000
v -0.900000 6.660000 1.000000
v 0.900000 6.660000 1.000000
v 1.620000 6.660000 1.000000
v -0.900000 8.460000 1.000000
v 0.900000 8.460000 1.000000
v 1.620000 8.460000 1.000000
v 3.420000 6.660000 1.000000
v 3.420000 8.460000 1.000000
v 4.140000 6.660000 1.000000
v 4.140000 8.460000 1.000000
v 5.940000 6.660000 1.000000
v 5.940000 8.460000 1.000000
v 6.660000 6.660000 1.000000
v 6.660000 8.460000 1.000000
v 8.460000 6.660000 1.000000
v 8.460000 8.460000 1.000000
v 9.180000 8.460000 1.000000
v 9.180000 6.660000 1.000000
v -0.900000 9.180000 1.000000
v 3.420000 9.180000 1.000000
v 4.140000 9.180000 1.000000
v 8.460000 9.180000 1.000000
v 9.180000 9.180000 1.000000
v 0.900000 9.180000 1.000000
v -0.900000 10.980000 1.000000
v 0.900000 10.980000 1.000000
v 1.620000 9.180000 1.000000
v 1.620000 10.980000 1.000000
v 3.420000 10.980000 1.000000
v 4.140000 10.980000 1.000000
v 5.940000 9.180000 1.000000
v 5.940000 10.980000 1.000000
v 6.660000 9.180000 1.000000
v 6.660000 10.980000 1.000000
v 8.460000 10.980000 1.000000
v 9.180000 10.980000 1.000000
v 0.900000 11.700000 1.000000
v 4.140000 11.700000 1.000000
v 5.940000 11.700000 1.000000
v 9.180000 11.700000 1.000000
v -0.900000 11.700000 1.000000
v -0.900000 13.500000 1.000000
v 0.900000 13.500000 1.000000
v 1.620000 11.700000 1.000000
v 1.620000 13.500000 1.000000
v 3.420000 11.700000 1.000000
v 3.420000 13.500000 1.000000
v 4.140000 13.500000 1.000000
v 5.940000 13.500000 1.000000
v 6.660000 11.700000 1.000000
v 6.660000 13.500000 1.000000
v 8.460000 11.700000 1.000000
v 8.460000 13.500000 1.000000
v 9.180000 13.500000 1.000000
v 4.140000 14.219999 1.000000
v 5.940000 14.219999 1.000000
v 8.460000 14.219999 1.000000
v -0.900000 14.219999 1.000000
v 0.900000 14.219999 1.000000
v -0.900000 16.020000 1.000000
v 0.900000 16.020000 1.000000
v 1.620000 14.219999 1.000000
v 1.620000 16.020000 1.000000
v 3.420000 14.219999 1.000000
v 3.420000 16.020000 1.000000
v 4.140000 16.020000 1.000000
v 5.940000 16.020000 1.000000
v 6.660000 14.219999 1.000000
v 6.660000 16.020000 1.000000
v 8.460000 16.020000 1.000000
v 9.180000 16.020000 1.000000
v 9.180000 14.219999 1.000000
v 0.900000 16.740000 1.000000
v 3.420000 16.740000 1.000000
v 5.940000 16.740000 1.000000
v 9.180000 16.740000 1.000000
v -0.900000 16.740000 1.000000
v -0.900000 18.540001 1.000000
v 0.900000 18.540001 1.000000
v 1.620000 16.740000 1.000000
v 1.620000 18.540001 1.000000
v 3.420000 18.540001 1.000000
v 4.140000 16.740000 1.000000
v 4.140000 18.540001 1.000000
v 5.940000 18.540001 1.000000
v 6.660000 16.740000 1.000000
v 6.660000 18.540001 1.000000
v 8.460000 16.740000 1.000000
v 8.460000 18.540001 1.000000
v 9.180000 18.540001 1.000000
l 181 179
l 179 180
l 180 182
l 182 181
l 183 184
l 185 186
l 183 185
l 186 184
l 187 188
l 189 190
l 189 187
l 188 190
l 191 192
l 193 194
l 193 191
l 192 194
l 195 196
l 199 198
l 200 201
l 202 203
l 205 204
l 206 205
l 208 207
l 209 210
l 211 212
l 213 214
l 215 216
l 218 219
l 222 221
l 223 224
l 225 226
l 223 225
l 226 224
l 227 228
l 228 229
l 230 231
l 233 234
l 237 236
l 239 240
l 240 238
l 241 242
l 243 244
l 243 241
l 242 244
l 245 246
l 247 248
l 247 245
l 246 248
l 249 250
l 256 258
l 258 257
l 259 260
l 261 260
l 263 264
l 262 264
l 265 266
l 266 267
l 270 271
l 274 273
l 275 274
l 276 277
l 278 279
l 278 276
l 279 277
l 280 281
l 282 283
l 284 285
l 284 282
l 283 285
l 287 288
l 292 290
l 291 290
l 291 293
l 293 292
l 294 295
l 296 297
l 296 294
l 297 295
l 298 299
l 300 301
l 301 302
l 303 304
l 310 309
l 311 310
l 312 313
l 314 313
l 315 316
l 316 317
l 318 319
l 320 321
l 320 318
l 319 321
l 197 204
l 197 206
l 198 207
l 199 208
l 200 209
l 201 210
l 202 211
l 203 212
l 227 217
l 221 215
l 216 222
l 217 229
l 218 230
l 219 231
l 232 220
l 235 239
l 236 233
l 234 237
l 235 238
l 251 256
l 259 252
l 253 263
l 265 254
l 257 251
l 252 261
l 253 262
l 254 267
l 268 255
l 273 269
l 269 275
l 270 280
l 271 281
l 286 272
l 300 289
l 287 298
l 288 299
l 289 302
l 309 305
l 312 306
l 315 307
l 305 311
l 306 314
l 307 317
l 322 308
o 平面.003
v 9.555780 19.482357 0.000002
v -1.870749 19.482357 0.000002
v 9.555780 -1.667060 0.000001
v -1.870749 -1.667060 0.000001
vn -0.0000 -0.0000 -1.0000
vt 0.000000 0.000000
vt 1.000000 0.000000
vt 1.000000 1.000000
vt 0.000000 1.000000
s 0
f 323/5/3 325/8/3 326/7/3 324/6/3
