# Blender 4.2.8 LTS
# www.blender.org
mtllib board_rb.mtl
o 平面.001
v 8.420047 21.618923 1.059941
v 8.420046 19.619123 1.059941
v 8.420046 18.819202 1.059941
v 8.420046 16.819403 1.059941
v 8.420046 16.019484 1.059941
v 8.420046 14.019684 1.059940
v 8.420046 13.219764 1.059940
v 8.420046 11.219964 1.059940
v 8.420046 10.420043 1.059940
v 8.420046 8.420244 1.059940
v 8.420046 7.620324 1.059940
v 8.420046 5.620523 1.059939
v 8.420046 4.820604 1.059939
v 8.420046 2.820803 1.059939
v 8.420046 2.020884 1.059939
v 8.420046 0.021082 1.059939
v 9.219967 21.618923 1.059941
v 9.219966 16.819403 1.059941
v 9.219966 16.019484 1.059941
v 9.219966 11.219964 1.059940
v 9.219966 10.420043 1.059940
v 9.219966 5.620523 1.059939
v 9.219966 4.820604 1.059939
v 9.219966 2.820803 1.059939
v 9.219966 2.020884 1.059939
v 9.219966 0.021082 1.059938
v 9.219967 19.619123 1.059941
v 11.719765 21.618923 1.059941
v 11.719765 19.619123 1.059941
v 9.219966 18.819202 1.059941
v 11.719765 18.819202 1.059941
v 11.719765 16.819403 1.059940
v 11.719765 16.019484 1.059940
v 9.219966 14.019684 1.059940
v 11.719765 14.019683 1.059940
v 9.219966 13.219764 1.059940
v 11.719765 13.219764 1.059940
v 11.719765 11.219964 1.059940
v 11.719765 10.420043 1.059939
v 9.219966 8.420244 1.059940
v 11.719765 8.420244 1.059939
v 9.219966 7.620324 1.059939
v 11.719765 7.620324 1.059939
v 11.719765 5.620523 1.059939
v 11.719765 4.820604 1.059939
v 11.719765 2.820803 1.059938
v 11.719765 2.020884 1.059938
v 11.719765 0.021082 1.059938
v 12.519686 19.619123 1.059941
v 12.519685 16.019484 1.059940
v 12.519685 14.019683 1.059940
v 12.519685 10.420043 1.059939
v 12.519684 0.021082 1.059938
v 12.519686 21.618923 1.059941
v 15.019485 21.618923 1.059941
v 15.019485 19.619123 1.059940
v 12.519686 18.819202 1.059941
v 15.019485 18.819202 1.059940
v 12.519686 16.819403 1.059940
v 15.019485 16.819403 1.059940
v 15.019485 16.019484 1.059940
v 15.019485 14.019683 1.059940
v 12.519685 13.219764 1.059940
v 15.019485 13.219764 1.059939
v 12.519685 11.219964 1.059940
v 15.019485 11.219964 1.059939
v 15.019485 10.420043 1.059939
v 12.519685 8.420244 1.059939
v 15.019485 8.420244 1.059939
v 12.519685 7.620324 1.059939
v 15.019485 7.620324 1.059939
v 12.519685 5.620523 1.059939
v 15.019485 5.620523 1.059938
v 12.519685 4.820604 1.059939
v 15.019485 4.820604 1.059938
v 12.519685 2.820803 1.059938
v 15.019485 2.820803 1.059938
v 12.519685 2.020884 1.059938
v 15.019485 2.020884 1.059938
v 15.019485 0.021082 1.059938
v 15.819405 16.019484 1.059940
v 15.819405 14.019683 1.059939
v 15.819405 11.219964 1.059939
v 15.819405 8.420244 1.059939
v 15.819405 5.620523 1.059938
v 15.819405 4.820604 1.059938
v 15.819405 2.020884 1.059938
v 15.819405 0.021082 1.059937
v 15.819405 21.618923 1.059940
v 15.819405 19.619123 1.059940
v 18.319206 21.618923 1.059940
v 18.319206 19.619123 1.059940
v 15.819405 18.819202 1.059940
v 18.319206 18.819202 1.059940
v 15.819405 16.819403 1.059940
v 18.319206 16.819403 1.059940
v 18.319206 16.019484 1.059939
v 18.319206 14.019683 1.059939
v 15.819405 13.219764 1.059939
v 18.319206 13.219763 1.059939
v 18.319206 11.219963 1.059939
v 18.319206 10.420042 1.059939
v 15.819405 10.420043 1.059939
v 18.319206 8.420244 1.059938
v 15.819405 7.620324 1.059939
v 18.319206 7.620323 1.059938
v 18.319206 5.620523 1.059938
v 18.319206 4.820604 1.059938
v 15.819405 2.820803 1.059938
v 18.319206 2.820803 1.059938
v 18.319206 2.020884 1.059937
v 18.319206 0.021082 1.059937
v 19.119125 19.619123 1.059940
v 19.119125 16.819403 1.059939
v 19.119125 14.019683 1.059939
v 19.119125 10.420042 1.059938
v 19.119125 4.820604 1.059938
v 19.119125 2.820803 1.059937
v 19.119125 2.020884 1.059937
v 19.119125 0.021082 1.059937
v 19.119125 21.618923 1.059940
v 21.618927 21.618923 1.059940
v 21.618927 19.619122 1.059939
v 19.119125 18.819202 1.059940
v 21.618927 18.819202 1.059939
v 21.618927 16.819403 1.059939
v 19.119125 16.019484 1.059939
v 21.618927 16.019484 1.059939
v 21.618927 14.019683 1.059939
v 19.119125 13.219763 1.059939
v 21.618927 13.219763 1.059938
v 19.119125 11.219963 1.059939
v 21.618927 11.219963 1.059938
v 21.618927 10.420042 1.059938
v 19.119125 8.420244 1.059938
v 21.618927 8.420244 1.059938
v 19.119125 7.620323 1.059938
v 21.618927 7.620323 1.059938
v 19.119125 5.620523 1.059938
v 21.618927 5.620523 1.059937
v 21.618927 4.820604 1.059937
v 21.618927 2.820803 1.059937
v 21.618927 2.020882 1.059937
v 21.618927 0.021080 1.059937
l 2 1
l 4 3
l 5 6
l 7 8
l 11 12
l 15 16
l 9 10
l 13 14
l 25 26
l 23 24
l 27 29
l 29 28
l 30 31
l 32 31
l 34 35
l 33 35
l 36 37
l 37 38
l 40 41
l 42 43
l 43 44
l 47 48
l 39 41
l 45 46
l 50 51
l 55 54
l 56 55
l 57 58
l 59 60
l 59 57
l 60 58
l 61 62
l 63 64
l 65 66
l 65 63
l 64 66
l 68 69
l 70 71
l 72 73
l 72 70
l 71 73
l 75 74
l 76 77
l 78 79
l 79 80
l 67 69
l 76 74
l 75 77
l 81 82
l 87 88
l 91 89
l 90 89
l 90 92
l 92 91
l 93 94
l 95 96
l 95 93
l 96 94
l 97 98
l 99 100
l 100 101
l 105 106
l 106 107
l 109 110
l 111 112
l 102 103
l 102 104
l 108 110
l 119 120
l 117 118
l 122 121
l 123 122
l 124 125
l 126 125
l 127 128
l 128 129
l 130 131
l 132 133
l 132 130
l 131 133
l 135 136
l 137 138
l 139 140
l 139 137
l 138 140
l 143 144
l 134 136
l 141 142
l 17 27
l 30 18
l 19 34
l 36 20
l 42 22
l 21 40
l 28 17
l 18 32
l 19 33
l 20 38
l 22 44
l 45 23
l 24 46
l 25 47
l 26 48
l 39 21
l 54 49
l 78 53
l 52 68
l 49 56
l 50 61
l 51 62
l 53 80
l 67 52
l 99 83
l 105 85
l 103 84
l 86 109
l 81 97
l 82 98
l 83 101
l 84 104
l 85 107
l 108 86
l 87 111
l 88 112
l 121 113
l 124 114
l 127 115
l 116 135
l 113 123
l 114 126
l 115 129
l 141 117
l 118 142
l 119 143
l 120 144
l 134 116
o 平面.003
v 23.045174 22.678387 0.000001
v 7.764840 22.678387 0.000001
v 23.045174 -1.142818 0.000001
v 7.764840 -1.142818 0.000001
vn -0.0000 -0.0000 1.0000
vt 0.000000 0.000000
vt 1.000000 0.000000
vt 1.000000 1.000000
vt 0.000000 1.000000
s 0
f 145/1/1 146/2/1 148/3/1 147/4/1
