# Blender 4.2.8 LTS
# www.blender.org
mtllib board_right_back.mtl
o 平面.001
v 3.367363 -9.063742 1.047117
v 3.367363 -7.088548 1.047117
v 5.342557 -9.063742 1.047117
v 5.342557 -7.088548 1.047117
v 7.982301 -9.063742 1.047117
v 7.982301 -7.088548 1.047117
v 9.957495 -9.063742 1.047117
v 9.957495 -7.088548 1.047117
v 1.059895 -6.756272 1.047117
v 3.035088 -6.756272 1.047117
v 1.059895 -4.781078 1.047117
v 5.674832 -6.756272 1.047117
v 5.674832 -4.781078 1.047117
v 7.650025 -6.756272 1.047117
v 3.035088 -4.781078 1.047117
v 7.650025 -4.781078 1.047117
v 5.342557 -4.448803 1.047117
v 7.982301 -4.448803 1.047117
v 3.367363 -4.448803 1.047117
v 9.957495 -4.448803 1.047117
v 3.367363 -2.473609 1.047117
v 5.342557 -2.473609 1.047117
v 7.982301 -2.473609 1.047117
v 9.957495 -2.473609 1.047117
v 1.059895 -2.141334 1.047117
v 3.035088 -2.141334 1.047117
v 3.035088 -0.166140 1.047117
v 5.674832 -2.141334 1.047117
v 5.674832 -0.166140 1.047117
v 7.650025 -2.141334 1.047117
v 1.059895 -0.166140 1.047117
v 7.650025 -0.166140 1.047117
v 5.342557 0.166135 1.047117
v 7.982301 0.166135 1.047117
v 3.367363 0.166135 1.047117
v 3.367363 2.141329 1.047117
v 5.342557 2.141329 1.047117
v 9.957495 0.166135 1.047117
v 7.982301 2.141329 1.047117
v 9.957495 2.141329 1.047117
v 1.059895 2.473605 1.047117
v 3.035088 2.473605 1.047117
v 3.035088 4.448799 1.047117
v 5.674832 2.473605 1.047117
v 7.650025 2.473605 1.047117
v 7.650025 4.448799 1.047117
v 1.059895 4.448799 1.047117
v 5.674832 4.448799 1.047117
v 5.342557 4.781074 1.047117
v 7.982301 4.781074 1.047117
v 3.367363 4.781074 1.047117
v 7.982301 6.756268 1.047117
v 9.957495 4.781074 1.047117
v 9.957495 6.756268 1.047117
v 3.367363 6.756268 1.047117
v 5.342557 6.756268 1.047117
v 1.059895 7.088543 1.047117
v 3.035088 7.088543 1.047117
v 3.035088 9.063736 1.047118
v 1.059895 9.063736 1.047118
v 5.674832 7.088543 1.047117
v 5.674832 9.063736 1.047118
v 7.650025 7.088543 1.047117
v 7.650025 9.063736 1.047118
l 2 1
l 4 3
l 2 4
l 3 1
l 6 5
l 8 7
l 7 5
l 6 8
l 11 9
l 9 10
l 13 12
l 12 14
l 19 17
l 18 20
l 21 22
l 23 24
l 27 26
l 25 26
l 29 28
l 28 30
l 36 35
l 37 36
l 35 33
l 34 38
l 37 33
l 39 40
l 43 42
l 41 42
l 46 45
l 44 45
l 54 53
l 54 52
l 51 49
l 50 53
l 52 50
l 55 56
l 59 58
l 59 60
l 60 57
l 57 58
l 62 61
l 64 63
l 64 62
l 61 63
l 15 10
l 15 11
l 16 14
l 13 16
l 21 19
l 24 20
l 22 17
l 23 18
l 27 31
l 31 25
l 32 30
l 32 29
l 40 38
l 39 34
l 43 47
l 47 41
l 48 44
l 46 48
l 55 51
l 56 49
o 平面.003
v -0.665193 10.763597 0.000000
v 10.788826 10.763597 0.000000
v -0.665193 -10.763597 -0.000000
v 10.788826 -10.763597 -0.000000
vn -0.0000 -0.0000 -1.0000
vt 0.000000 0.000000
vt 1.000000 0.000000
vt 1.000000 1.000000
vt 0.000000 1.000000
s 0
f 65/1/1 66/2/1 68/3/1 67/4/1
