# Blender 4.2.8 LTS
# www.blender.org
mtllib pawn.mtl
o Pawn.002
v -5.000000 0.000000 0.000000
v 1.200000 0.000001 0.000000
v -0.500000 2.539400 0.000070
v -3.002940 0.902878 0.000580
v 1.200000 0.500000 0.000001
v -3.501560 0.899410 0.000069
v -7.000000 0.500000 0.000000
v -7.000000 0.125000 0.000000
v 1.000000 2.539399 0.000073
v -5.049572 1.146016 0.000960
v -6.986555 0.755719 0.000025
v -1.003700 0.755771 0.000078
v -2.950038 1.147953 0.002937
v 0.997500 0.125000 0.000000
v 1.002500 0.125000 0.000000
v 0.997500 0.375000 0.000000
v 1.002500 0.375000 0.000000
v -7.200000 0.137500 0.000000
v -7.000000 0.000000 0.000000
v -7.200000 0.362500 0.000000
v -4.501560 0.899410 0.000069
v -3.501560 0.904410 0.000069
v -4.501560 0.904410 0.000069
v -0.500000 2.539400 -0.999930
v -5.000190 1.301474 0.000856
v -3.002940 1.302346 0.000685
v 0.000000 1.200000 0.000001
v 0.100000 1.100000 0.000001
v -0.100000 1.100000 0.000001
v 0.000000 1.000000 0.000001
v 0.000000 1.300000 -1.999999
v -1.000000 2.539400 0.000070
v -1.000000 0.000001 0.000000
v -1.000000 0.500001 0.000000
v -5.000190 0.900941 0.000960
v 1.000000 0.000001 0.000000
v -7.000000 0.375000 0.000000
v 1.000000 0.500000 0.000000
v -3.000000 0.000001 0.000000
v -5.000000 0.000000 -1.000000
v 0.500000 2.539400 0.000072
v -0.450000 2.939400 0.000070
v 0.450000 2.939400 0.000072
v -3.002940 0.902878 -0.999420
v -7.000000 0.500000 -1.000000
v -7.000000 0.125000 -1.000000
v -1.000000 0.000001 -1.000000
v -1.000000 0.500001 -1.000000
v -5.000190 0.900941 -0.999040
v 1.000000 0.000001 -1.000000
v -7.000000 0.375000 -1.000000
v 1.000000 0.500000 -1.000000
v -3.000000 0.000001 -1.000000
v 0.500000 2.539400 -0.999928
vn -0.0000 -0.0000 -1.0000
vn -0.0000 -0.0000 1.0000
vn -0.0000 0.0005 -1.0000
vt 0.000000 0.000000
s 0
usemtl Whites.001
f 15/1/1 14/1/1 16/1/1 17/1/1
f 6/1/1 21/1/1 23/1/1 22/1/1
f 28/1/2 27/1/2 29/1/2 30/1/2
f 2/1/3 36/1/3 33/1/3 39/1/3 1/1/3 19/1/3 8/1/3 18/1/3 20/1/3 37/1/3 7/1/3 11/1/3 10/1/3 35/1/3 25/1/3 26/1/3 4/1/3 13/1/3 12/1/3 34/1/3 32/1/3 3/1/3 42/1/3 43/1/3 41/1/3 9/1/3 38/1/3 5/1/3
l 47 48
l 52 48
l 49 44
l 24 54
l 52 50
l 51 46
l 44 48
l 49 45
l 40 49
l 53 44
