# Blender 4.2.8 LTS
# www.blender.org
mtllib rook.mtl
o Rook
v -4.001560 1.899410 -1.999931
v 0.997500 0.312500 -2.000000
v 0.997500 1.184000 -2.000000
v 0.997500 1.187500 -2.000000
v 0.997500 0.316000 -2.000000
v -5.001560 1.899410 -1.999931
v -4.996560 1.899410 -1.999931
v -4.006560 1.899410 -1.999931
v 0.000000 2.200000 -1.999999
v 0.100000 2.100000 -1.999999
v -0.100000 2.100000 -1.999999
v 0.000000 2.000000 -1.999999
v 0.000000 1.900000 -1.999999
v 0.000000 1.700000 -1.999999
v 0.000000 2.500000 -1.999999
v 0.000000 2.300000 -1.999999
v -0.400000 2.100000 -1.999999
v -0.200000 2.100000 -1.999999
v 0.200000 2.100000 -1.999999
v 0.400000 2.100000 -1.999999
v 1.012500 1.187500 -2.000000
v 1.012500 0.312500 -2.000000
v 1.007500 1.184000 -2.000000
v 1.007500 0.316000 -2.000000
v -4.001560 1.914410 -1.999931
v -5.001560 1.914410 -1.999931
v -4.996560 1.909410 -1.999931
v -4.006560 1.909410 -1.999931
v 1.400004 -0.000005 0.000000
v 1.000001 -0.000000 0.000000
v 1.000004 1.499997 0.000000
v 1.400005 1.499997 0.000000
v -1.000001 0.000000 0.000000
v -0.999999 1.499998 0.000000
v -3.500003 -0.000004 0.000000
v -3.502942 1.902876 0.000000
v -5.500006 -0.000005 0.000000
v -5.500196 1.900939 0.000000
v -8.000010 -0.000005 0.000000
v -8.000010 0.324803 0.000000
v -8.000010 1.175189 0.000000
v -8.000010 1.499997 0.000000
v -7.986565 1.755716 0.000000
v -5.549579 2.146014 0.000000
v -8.400010 1.143747 0.000000
v -8.400011 0.356245 0.000000
v -5.500196 2.301473 0.000000
v -3.502942 2.302344 0.000000
v -1.003699 1.755768 0.000000
v -3.450040 2.147962 0.000000
v -0.474998 4.034975 0.000000
v -0.449998 4.434976 0.000000
v 0.450004 4.434976 0.000000
v 0.475003 4.034975 0.000000
v 1.000005 4.034975 0.000000
v -0.999999 4.034975 0.000000
v 1.000001 -0.000000 -1.000000
v 1.000004 1.499997 -1.000000
v -1.000001 0.000000 -1.000000
v -0.999999 1.499998 -1.000000
v -3.500003 -0.000004 -1.000000
v -3.502942 1.902876 -1.000000
v -5.500006 -0.000005 -1.000000
v -5.500196 1.900939 -1.000000
v -8.000010 0.312495 -1.000000
v -8.000010 1.187497 -1.000000
v -8.000010 1.499997 -1.000000
v -0.499998 4.034975 -1.000000
v 0.500003 4.034975 -1.000000
v 1.000002 0.314489 -1.000000
v 1.000004 1.185508 -1.000000
v -4.004216 1.902390 -1.000000
v -4.998922 1.901425 -1.000000
v 1.007500 0.894667 -2.000000
v 1.007500 0.605334 -2.000000
v 0.957500 0.894667 -2.000000
v 0.957500 0.605334 -2.000000
v 0.907500 0.750000 -2.000000
v -4.666560 1.909410 -1.999931
v -4.336560 1.909410 -1.999931
v -4.666560 1.859410 -1.999931
v -4.336560 1.859410 -1.999931
v -4.501560 1.809410 -1.999931
v -8.090009 0.302425 0.000000
v -8.090009 1.197567 0.000000
v 0.500003 4.174974 0.000000
v -0.499998 4.174974 0.000000
vn -0.0000 -0.0000 1.0000
vn -0.0000 -0.0000 -1.0000
vt 0.463877 0.213394
vt 0.463877 0.229463
vt 0.447809 0.229463
vt 0.447809 0.213394
vt 0.000000 0.000000
s 0
usemtl Whites.002
f 10/1/1 9/2/1 11/3/1 12/4/1
f 4/5/2 21/5/2 22/5/2 2/5/2 5/5/2 24/5/2 75/5/2 77/5/2 78/5/2 76/5/2 74/5/2 23/5/2 3/5/2
f 7/5/2 6/5/2 26/5/2 25/5/2 1/5/2 8/5/2 28/5/2 80/5/2 82/5/2 83/5/2 81/5/2 79/5/2 27/5/2
f 32/5/2 29/5/2 30/5/2 33/5/2 35/5/2 37/5/2 39/5/2 40/5/2 84/5/2 46/5/2 45/5/2 85/5/2 41/5/2 42/5/2 43/5/2 44/5/2 38/5/2 47/5/2 48/5/2 36/5/2 50/5/2 49/5/2 34/5/2 56/5/2 51/5/2 87/5/2 52/5/2 53/5/2 86/5/2 54/5/2 55/5/2 31/5/2
l 71 58
l 58 60
l 59 60
l 60 62
l 61 62
l 73 64
l 63 64
l 65 66
l 64 67
l 68 69
l 57 70
l 62 72
